<svg width="150" height="70" viewBox="0 0 150 70" fill="none" xmlns="http://www.w3.org/2000/svg">
<g id="Vector Logo">
<g id="Foods">
<path d="M49.7426 59.5982C49.7114 59.7148 49.6528 59.8819 49.567 60.0996C49.4812 60.3173 49.3837 60.5661 49.2744 60.8459C49.1652 61.118 49.0443 61.4096 48.9117 61.7205C48.779 62.0237 48.6503 62.323 48.5255 62.6184C48.4709 62.7506 48.4045 62.8478 48.3265 62.91C48.2563 62.9722 48.1081 63.0072 47.8818 63.0149L44.4646 63.0732L44.0433 68.2508C44.0355 68.3208 44.016 68.3908 43.9848 68.4607C43.9536 68.5229 43.9068 68.5734 43.8444 68.6123C43.821 68.6279 43.7273 68.6745 43.5635 68.7523C43.4075 68.8222 43.2085 68.9077 42.9667 69.0088C42.7248 69.1099 42.4595 69.2187 42.1709 69.3353C41.8822 69.4519 41.5974 69.5569 41.3166 69.6502C41.0357 69.7512 40.7783 69.8329 40.5442 69.8951C40.3101 69.965 40.1268 70 39.9942 70C39.8381 70 39.6938 69.9689 39.5612 69.9067C39.4363 69.8523 39.3739 69.7357 39.3739 69.5569C39.3661 69.1682 39.3739 68.7406 39.3973 68.2741C39.4285 67.7999 39.4636 67.3218 39.5027 66.8398C39.5417 66.35 39.5846 65.8719 39.6314 65.4055C39.6782 64.9313 39.7172 64.4998 39.7484 64.1111L39.8303 63.1315C39.175 63.1315 38.7069 63.116 38.426 63.0849C38.1451 63.046 38.0047 62.9527 38.0047 62.805C38.0047 62.704 38.0632 62.5718 38.1802 62.4085C38.3441 62.1831 38.5274 61.911 38.7303 61.5923C38.9409 61.2735 39.1399 60.9626 39.3271 60.6594C39.5222 60.3562 39.6899 60.088 39.8303 59.8547C39.9786 59.6215 40.0722 59.4777 40.1112 59.4233L40.3335 56.2164C40.1853 56.2164 40.0566 56.2203 39.9474 56.2281C39.8381 56.2281 39.7367 56.232 39.6431 56.2398C39.5573 56.2398 39.4753 56.2436 39.3973 56.2514C39.3193 56.2514 39.2374 56.2514 39.1516 56.2514C38.7771 56.2514 38.5079 56.232 38.3441 56.1931C38.188 56.1465 38.11 56.0648 38.11 55.9482C38.11 55.8938 38.1568 55.7811 38.2505 55.6101C38.3441 55.439 38.4572 55.2447 38.5898 55.027C38.7303 54.8015 38.8785 54.5683 39.0345 54.3273C39.1984 54.0785 39.3427 53.8492 39.4675 53.6393L40.1697 52.4499L45.4945 52.2633C46.181 52.24 46.8637 52.2166 47.5424 52.1933C48.2212 52.1622 48.8453 52.135 49.4149 52.1117C49.9922 52.0884 50.4876 52.0689 50.9011 52.0534C51.3146 52.0301 51.6033 52.0145 51.7671 52.0067C51.7749 52.0067 51.7944 52.0106 51.8256 52.0184C51.8647 52.0184 51.9037 52.0301 51.9427 52.0534C51.9817 52.0689 52.0168 52.1 52.048 52.1467C52.087 52.1933 52.1065 52.2594 52.1065 52.3449C52.1065 52.3916 52.0519 52.547 51.9427 52.8114C51.8334 53.0757 51.6774 53.4683 51.4746 53.9891L50.9596 55.3418C50.905 55.474 50.8426 55.5751 50.7724 55.645C50.7022 55.715 50.5539 55.7539 50.3277 55.7616C50.0624 55.7694 49.7933 55.7811 49.5202 55.7966C49.2471 55.8122 48.9663 55.8277 48.6776 55.8433L45.12 56.0182C45.0732 56.3214 45.0381 56.5468 45.0146 56.6945C44.999 56.8423 44.9873 56.9666 44.9795 57.0677C44.9795 57.161 44.9795 57.2582 44.9795 57.3592C44.9795 57.4525 44.9756 57.6041 44.9678 57.814C44.96 57.9617 44.9483 58.0861 44.9327 58.1872C44.9249 58.2882 44.9132 58.3893 44.8976 58.4904C44.8898 58.5837 44.8781 58.6847 44.8625 58.7936C44.8547 58.9024 44.8469 59.0385 44.8391 59.2017C45.354 59.1862 45.8572 59.1706 46.3488 59.1551C46.8481 59.1395 47.3045 59.124 47.718 59.1084C48.1393 59.0929 48.5021 59.0812 48.8063 59.0734C49.1106 59.0579 49.3252 59.0501 49.45 59.0501C49.5124 59.0501 49.5826 59.0734 49.6606 59.1201C49.7387 59.1667 49.7777 59.2561 49.7777 59.3883C49.7777 59.4505 49.766 59.5205 49.7426 59.5982Z" fill="#131313"/>
<path d="M56.8578 61.2308C56.8578 61.7905 56.9163 62.3541 57.0334 62.9216C57.1582 63.4814 57.361 63.9867 57.6419 64.4376C57.9228 64.8885 58.2934 65.2539 58.7537 65.5338C59.214 65.8136 59.7835 65.9536 60.4623 65.9536C60.985 65.9225 61.4414 65.8175 61.8315 65.6387C62.2294 65.4521 62.5688 65.215 62.8496 64.9274C63.1383 64.632 63.3763 64.2977 63.5635 63.9245C63.7507 63.5436 63.899 63.1471 64.0082 62.7351C64.1174 62.3153 64.1916 61.8877 64.2306 61.4523C64.2774 61.017 64.3008 60.5972 64.3008 60.1929C64.3008 59.6409 64.2267 59.1084 64.0784 58.5953C63.9302 58.0745 63.7078 57.6158 63.4114 57.2193C63.1149 56.8228 62.7443 56.5041 62.2996 56.2631C61.8627 56.0221 61.3517 55.9016 60.7666 55.9016C60.3062 55.9016 59.8888 55.9871 59.5144 56.1581C59.1477 56.3292 58.82 56.5585 58.5313 56.8461C58.2427 57.126 57.993 57.4525 57.7823 57.8257C57.5795 58.1911 57.4079 58.572 57.2674 58.9685C57.1348 59.3572 57.0334 59.7498 56.9632 60.1463C56.9007 60.535 56.8656 60.8965 56.8578 61.2308ZM59.1399 69.7901C57.9696 69.7901 56.9241 69.5724 56.0035 69.1371C55.0829 68.7017 54.3027 68.1148 53.663 67.3762C53.031 66.6299 52.5434 65.7709 52.2001 64.7991C51.8647 63.8196 51.6969 62.7856 51.6969 61.6972C51.6969 60.4767 51.8686 59.3533 52.2118 58.3271C52.5629 57.2932 53.0505 56.3797 53.6747 55.5867C54.2988 54.786 55.04 54.1135 55.8982 53.5693C56.7642 53.0174 57.7121 52.6092 58.742 52.3449C58.8356 52.3449 58.9058 52.2711 58.9526 52.1233C59.0072 51.9756 59.054 51.8124 59.0931 51.6336C59.1321 51.4548 59.1789 51.2915 59.2335 51.1438C59.2881 50.9961 59.3661 50.9222 59.4675 50.9222C60.9811 51.0777 62.3425 51.3459 63.5518 51.7269C64.7611 52.1 65.787 52.6364 66.6296 53.3361C67.4722 54.0358 68.1159 54.922 68.5606 55.9949C69.0131 57.0599 69.2393 58.3621 69.2393 59.9014C69.2393 60.8887 69.1184 61.8177 68.8766 62.6884C68.6347 63.5591 68.2953 64.3637 67.8584 65.1023C67.4215 65.8331 66.8949 66.49 66.2785 67.073C65.67 67.6483 64.9912 68.1381 64.2423 68.5424C63.4933 68.9466 62.6858 69.2537 61.8198 69.4636C60.9616 69.6813 60.0683 69.7901 59.1399 69.7901Z" fill="#131313"/>
<path d="M75.7695 61.2308C75.7695 61.7905 75.828 62.3541 75.945 62.9216C76.0698 63.4814 76.2727 63.9867 76.5536 64.4376C76.8344 64.8885 77.205 65.2539 77.6653 65.5338C78.1256 65.8136 78.6952 65.9536 79.3739 65.9536C79.8966 65.9225 80.3531 65.8175 80.7431 65.6387C81.141 65.4521 81.4804 65.215 81.7613 64.9274C82.0499 64.632 82.2879 64.2977 82.4752 63.9245C82.6624 63.5436 82.8106 63.1471 82.9199 62.7351C83.0291 62.3153 83.1032 61.8877 83.1422 61.4523C83.189 61.017 83.2124 60.5972 83.2124 60.1929C83.2124 59.6409 83.1383 59.1084 82.9901 58.5953C82.8418 58.0745 82.6195 57.6158 82.323 57.2193C82.0265 56.8228 81.656 56.5041 81.2113 56.2631C80.7744 56.0221 80.2633 55.9016 79.6782 55.9016C79.2179 55.9016 78.8005 55.9871 78.426 56.1581C78.0593 56.3292 77.7316 56.5585 77.443 56.8461C77.1543 57.126 76.9046 57.4525 76.694 57.8257C76.4911 58.1911 76.3195 58.572 76.1791 58.9685C76.0464 59.3572 75.945 59.7498 75.8748 60.1463C75.8124 60.535 75.7773 60.8965 75.7695 61.2308ZM78.0515 69.7901C76.8812 69.7901 75.8358 69.5724 74.9152 69.1371C73.9946 68.7017 73.2144 68.1148 72.5746 67.3762C71.9427 66.6299 71.4551 65.7709 71.1118 64.7991C70.7763 63.8196 70.6086 62.7856 70.6086 61.6972C70.6086 60.4767 70.7802 59.3533 71.1235 58.3271C71.4746 57.2932 71.9622 56.3797 72.5863 55.5867C73.2105 54.786 73.9516 54.1135 74.8098 53.5693C75.6759 53.0174 76.6238 52.6092 77.6536 52.3449C77.7472 52.3449 77.8175 52.2711 77.8643 52.1233C77.9189 51.9756 77.9657 51.8124 78.0047 51.6336C78.0437 51.4548 78.0905 51.2915 78.1451 51.1438C78.1997 50.9961 78.2778 50.9222 78.3792 50.9222C79.8927 51.0777 81.2542 51.3459 82.4634 51.7269C83.6727 52.1 84.6987 52.6364 85.5413 53.3361C86.3839 54.0358 87.0275 54.922 87.4722 55.9949C87.9247 57.0599 88.151 58.3621 88.151 59.9014C88.151 60.8887 88.0301 61.8177 87.7882 62.6884C87.5463 63.5591 87.207 64.3637 86.7701 65.1023C86.3332 65.8331 85.8065 66.49 85.1902 67.073C84.5816 67.6483 83.9029 68.1381 83.1539 68.5424C82.4049 68.9466 81.5974 69.2537 80.7314 69.4636C79.8732 69.6813 78.9799 69.7901 78.0515 69.7901Z" fill="#131313"/>
<path d="M89.7426 69.7901C89.6567 69.7746 89.5943 69.7318 89.5553 69.6618C89.5163 69.5919 89.4968 69.5141 89.4968 69.4286C89.4968 69.3586 89.5124 69.2964 89.5436 69.242L90.9831 66.5016C90.9909 66.4705 91.0026 66.35 91.0182 66.1401C91.0416 65.9302 91.065 65.6698 91.0884 65.3588C91.1118 65.0401 91.1352 64.6864 91.1586 64.2977C91.1898 63.909 91.221 63.5241 91.2522 63.1432C91.2834 62.7623 91.3107 62.4008 91.3341 62.0587C91.3653 61.7089 91.3926 61.4173 91.4161 61.1841C91.4239 61.0908 91.4356 60.9509 91.4512 60.7643C91.4668 60.57 91.4824 60.3484 91.498 60.0996C91.5136 59.8509 91.5331 59.5826 91.5565 59.295C91.5799 59.0074 91.6033 58.7197 91.6267 58.4321L91.7905 55.9949C91.5799 56.0415 91.3614 56.0921 91.1352 56.1465C90.9089 56.1931 90.6866 56.2359 90.4681 56.2747C90.2575 56.3136 90.0546 56.3486 89.8596 56.3797C89.6723 56.403 89.5085 56.4147 89.3681 56.4147C89.2822 56.4147 89.2159 56.3758 89.1691 56.2981C89.1301 56.2203 89.1106 56.1387 89.1106 56.0532C89.1106 55.9521 89.134 55.8783 89.1808 55.8316L92.1533 53.0679C92.3952 52.8502 92.6331 52.6753 92.8672 52.5432C93.1091 52.4032 93.3977 52.2944 93.7332 52.2166C94.0687 52.1389 94.4783 52.0884 94.962 52.065C95.4535 52.0339 96.0737 52.0184 96.8227 52.0184C98.1022 52.0184 99.2374 52.1506 100.228 52.4149C101.219 52.6792 102.058 53.0562 102.744 53.546C103.251 53.8959 103.704 54.2612 104.102 54.6422C104.5 55.0231 104.835 55.4468 105.108 55.9132C105.381 56.3719 105.588 56.8811 105.729 57.4409C105.869 57.9928 105.939 58.6186 105.939 59.3183C105.939 60.6477 105.74 61.8294 105.342 62.8633C104.944 63.8973 104.402 64.803 103.716 65.5804C103.029 66.35 102.225 67.0031 101.305 67.5395C100.392 68.0759 99.4129 68.5113 98.3675 68.8455C97.3298 69.1798 96.2532 69.4208 95.1375 69.5685C94.0297 69.7162 92.9413 69.7901 91.8725 69.7901H89.7426ZM96.5419 55.75L96.4014 57.161C96.3546 57.6508 96.3039 58.1755 96.2493 58.7353C96.2025 59.2872 96.1557 59.8509 96.1089 60.4261C96.062 60.9937 96.0152 61.5573 95.9684 62.117C95.9216 62.669 95.8787 63.186 95.8397 63.668C95.8007 64.15 95.7656 64.5814 95.7344 64.9624C95.7032 65.3433 95.6759 65.6465 95.6524 65.8719L95.6173 66.2218C96.5614 66.2218 97.3571 66.0702 98.0047 65.767C98.6601 65.4638 99.1906 65.0479 99.5963 64.5192C100.002 63.9828 100.295 63.357 100.474 62.6418C100.661 61.9265 100.755 61.1569 100.755 60.3328C100.755 59.742 100.673 59.1745 100.509 58.6303C100.345 58.0783 100.107 57.5536 99.7952 57.056C99.4831 56.5585 99.1009 56.1853 98.6484 55.9366C98.1958 55.6878 97.6848 55.5634 97.1153 55.5634C97.0217 55.5634 96.9202 55.5867 96.811 55.6334C96.7018 55.6722 96.6121 55.7111 96.5419 55.75Z" fill="#131313"/>
<path d="M107.659 64.8457C107.659 64.838 107.656 64.8302 107.648 64.8224C107.648 64.8146 107.648 64.8069 107.648 64.7991C107.648 64.6669 107.718 64.6009 107.858 64.6009C107.929 64.6009 108.007 64.6358 108.092 64.7058C108.514 65.1023 108.982 65.4171 109.497 65.6504C110.012 65.8836 110.573 66.0002 111.182 66.0002C111.346 66.0002 111.533 65.9847 111.744 65.9536C111.954 65.9147 112.153 65.8564 112.341 65.7786C112.528 65.6931 112.684 65.5843 112.809 65.4521C112.941 65.32 113.008 65.1528 113.008 64.9507C113.008 64.7252 112.953 64.5231 112.844 64.3443C112.735 64.1655 112.59 64.0139 112.411 63.8895C112.341 63.8429 112.235 63.7651 112.095 63.6563C111.954 63.5475 111.794 63.4231 111.615 63.2831C111.436 63.1432 111.248 62.9955 111.053 62.84C110.858 62.6768 110.671 62.5252 110.492 62.3852C110.32 62.2375 110.164 62.1054 110.023 61.9887C109.883 61.8721 109.778 61.7827 109.707 61.7205C109.247 61.3785 108.88 61.0325 108.607 60.6827C108.342 60.3328 108.139 59.9675 107.999 59.5865C107.858 59.2056 107.769 58.813 107.73 58.4087C107.691 57.9967 107.671 57.5614 107.671 57.1027C107.671 56.4186 107.835 55.7694 108.163 55.1553C108.49 54.5411 108.951 54.0086 109.544 53.5577C110.144 53.099 110.862 52.7375 111.697 52.4732C112.532 52.2011 113.46 52.065 114.482 52.065C114.607 52.065 114.794 52.0806 115.044 52.1117C115.294 52.135 115.567 52.1778 115.863 52.24C116.167 52.3022 116.476 52.3877 116.788 52.4965C117.1 52.6053 117.384 52.7453 117.642 52.9163C117.728 52.9785 117.794 53.0407 117.841 53.1029C117.895 53.1651 117.931 53.2623 117.946 53.3944C117.985 54.0241 118.016 54.6461 118.04 55.2602C118.063 55.8666 118.094 56.5119 118.133 57.196C118.133 57.3281 118.106 57.4175 118.052 57.4642C117.997 57.5031 117.927 57.5225 117.841 57.5225C117.755 57.5225 117.689 57.4992 117.642 57.4525C117.416 57.2271 117.182 57.0055 116.94 56.7878C116.698 56.5702 116.444 56.3797 116.179 56.2164C115.914 56.0454 115.629 55.9094 115.325 55.8083C115.028 55.7072 114.705 55.6567 114.353 55.6567C114.143 55.6567 113.932 55.6761 113.721 55.715C113.511 55.7461 113.32 55.8083 113.148 55.9016C112.976 55.9949 112.836 56.1231 112.727 56.2864C112.625 56.4497 112.575 56.6557 112.575 56.9044C112.575 57.1688 112.606 57.3981 112.668 57.5925C112.738 57.7868 112.906 57.9695 113.171 58.1405L115.98 60.0413C116.495 60.4067 116.912 60.7721 117.232 61.1375C117.552 61.4951 117.802 61.8527 117.981 62.2103C118.161 62.5679 118.282 62.9216 118.344 63.2715C118.414 63.6135 118.449 63.9517 118.449 64.286C118.449 64.8302 118.36 65.3433 118.18 65.8253C118.001 66.3073 117.755 66.7543 117.443 67.1663C117.131 67.5706 116.764 67.936 116.343 68.2625C115.929 68.5812 115.485 68.8572 115.009 69.0904C114.533 69.3159 114.037 69.4869 113.523 69.6035C113.015 69.7279 112.516 69.7901 112.025 69.7901C111.642 69.7901 111.264 69.7823 110.889 69.7668C110.523 69.759 110.164 69.7279 109.813 69.6735C109.462 69.6268 109.122 69.5491 108.795 69.4403C108.467 69.3392 108.155 69.1954 107.858 69.0088L107.659 64.8457Z" fill="#131313"/>
</g>
<g id="Tasty">
<path d="M7.98713 43.8462C8.08465 42.4274 8.18217 41.0572 8.2797 39.7356C8.37722 38.414 8.46499 37.1313 8.54301 35.8874L9.59626 22.1272C9.71328 21.0777 9.81081 20.1253 9.88882 19.2702C9.96684 18.3956 10.0254 17.5501 10.0644 16.7339C10.1229 15.8981 10.1716 15.0624 10.2106 14.2267C10.2692 13.3715 10.3277 12.4289 10.3862 11.3988C9.74254 11.3794 9.05988 11.3697 8.33821 11.3697C7.63604 11.3697 6.89487 11.3697 6.11469 11.3697H0.46811C0.25356 11.3697 0.117028 11.292 0.0585138 11.1365C0.0195046 10.9616 0 10.8061 0 10.67V10.4659L3.21826 2.04071L3.189 1.9241C3.189 1.82693 3.24751 1.74918 3.36454 1.69088C3.50107 1.61314 3.79364 1.55483 4.24225 1.51596C6.93388 1.36048 9.53774 1.21471 12.0538 1.07866C14.5894 0.92318 17.086 0.787133 19.5436 0.67052C22.0207 0.553908 24.488 0.437296 26.9456 0.320684C29.4227 0.204071 31.968 0.0971769 34.5816 0C34.8157 0 35.0595 0.0291531 35.313 0.0874592C35.5861 0.145765 35.7226 0.359554 35.7226 0.728826C35.7226 0.767697 35.7129 0.806568 35.6934 0.845439C35.6739 0.884309 35.6641 0.92318 35.6641 0.962051C35.3521 1.7589 35.0595 2.51688 34.7864 3.23599C34.5329 3.9551 34.2793 4.66449 34.0257 5.36416C33.7722 6.06384 33.5089 6.77323 33.2358 7.49234C32.9823 8.21144 32.6994 8.96943 32.3874 9.76628C32.3679 9.78571 32.3288 9.88289 32.2703 10.0578C32.2118 10.2133 32.1241 10.3979 32.007 10.6117C31.89 10.8061 31.734 10.9907 31.5389 11.1656C31.3439 11.3405 31.1001 11.4377 30.8075 11.4572C30.71 11.4377 30.6124 11.428 30.5149 11.428C30.4174 11.428 30.3101 11.428 30.1931 11.428H22.3815C22.284 12.4192 22.1865 13.4687 22.0889 14.5765C22.0109 15.6843 21.9134 16.763 21.7964 17.8125L19.6606 40.5811C19.6411 40.756 19.6021 40.9309 19.5436 41.1058C19.5046 41.2807 19.3778 41.4071 19.1633 41.4848L10.8836 44.4584C10.669 44.5362 10.3862 44.6333 10.0351 44.7499C9.68403 44.8666 9.3427 44.9249 9.01112 44.9249C8.73805 44.9249 8.49425 44.8568 8.2797 44.7208C8.08465 44.5847 7.98713 44.3321 7.98713 43.9628V43.8462Z" fill="#E60000"/>
<path d="M59.8596 37.0535C59.8401 37.1313 59.8303 37.209 59.8303 37.2868C59.8303 37.3451 59.8303 37.4034 59.8303 37.4617C59.8303 37.9476 59.9083 38.3557 60.0644 38.6861C60.2204 38.9971 60.3862 39.2595 60.5617 39.4732C60.7568 39.6676 60.9323 39.8328 61.0884 39.9688C61.2444 40.0855 61.3224 40.1924 61.3224 40.2895C61.3224 40.5616 61.0298 40.8143 60.4447 41.0475L52.5746 44.4001C52.5551 44.4195 52.4868 44.4293 52.3698 44.4293C52.2138 44.4293 52.0577 44.2932 51.9017 44.0211C51.7457 43.749 51.5896 43.3992 51.4336 42.9716C51.2971 42.5635 51.1605 42.1262 51.024 41.6597C50.907 41.1738 50.7997 40.7268 50.7022 40.3187C49.4734 41.7375 48.1471 42.7773 46.7232 43.4381C45.2994 44.0989 43.8853 44.4293 42.481 44.4293C40.8426 44.4293 39.2432 44.0697 37.6829 43.3506C36.1225 42.6315 34.7377 41.6111 33.5284 40.2895C32.3191 38.9485 31.3439 37.3354 30.6027 35.4501C29.881 33.5649 29.5202 31.4464 29.5202 29.0948C29.5202 26.3155 29.92 23.7792 30.7197 21.4858C31.5389 19.1924 32.6409 17.2197 34.0257 15.5677C35.4106 13.9157 37.0197 12.6427 38.8531 11.7487C40.7061 10.8352 42.6663 10.3785 44.7338 10.3785C46.1966 10.3785 47.5814 10.6797 48.8882 11.2822C50.195 11.8653 51.4336 12.6233 52.6039 13.5562C52.7209 12.9731 52.7892 12.5067 52.8087 12.1568C52.8282 11.807 52.8672 11.5349 52.9257 11.3405C53.0037 11.1462 53.1402 11.0199 53.3353 10.9616C53.5303 10.8838 53.8522 10.8255 54.3008 10.7866C55.7051 10.5923 57.0997 10.4174 58.4845 10.2619C59.8888 10.087 61.3517 9.96063 62.873 9.88289L59.8596 37.0535ZM51.1118 26.0628C51.3068 24.955 51.4336 23.9152 51.4921 22.9435C51.5701 21.9523 51.6286 21.0485 51.6676 20.2322C51.3556 19.999 51.0142 19.7561 50.6437 19.5034C50.2926 19.2507 49.9025 19.0175 49.4734 18.8037C49.0638 18.5705 48.6249 18.3859 48.1568 18.2498C47.7082 18.1138 47.2304 18.0457 46.7232 18.0457C45.67 18.0457 44.7825 18.3859 44.0609 19.0661C43.3587 19.7463 42.7833 20.5821 42.3347 21.5733C41.9056 22.5645 41.5935 23.614 41.3985 24.7218C41.2229 25.8296 41.1352 26.8111 41.1352 27.6663C41.1352 30.737 41.535 32.9915 42.3347 34.4298C43.1539 35.8485 44.2852 36.5579 45.7285 36.5579C46.3136 36.5579 46.967 36.3927 47.6887 36.0623C48.4104 35.7319 49.1418 35.2752 49.883 34.6921L51.1118 26.0628Z" fill="#E60000"/>
<path d="M66.6472 34.8671C66.6472 34.8476 66.6374 34.8379 66.6179 34.8379C66.6179 34.8185 66.6179 34.799 66.6179 34.7796C66.6179 34.5269 66.7544 34.4006 67.0275 34.4006C67.203 34.4006 67.3591 34.4686 67.4956 34.6047C68.2758 35.3432 69.1633 35.9457 70.158 36.4122C71.1722 36.8786 72.2645 37.1118 73.4348 37.1118C73.7468 37.1118 74.1077 37.0827 74.5173 37.0244C74.9269 36.9466 75.3169 36.83 75.6875 36.6745C76.0581 36.5191 76.3604 36.315 76.5945 36.0623C76.8481 35.7902 76.9748 35.4598 76.9748 35.0711C76.9748 34.6436 76.8676 34.2548 76.653 33.905C76.4385 33.5357 76.1556 33.2345 75.8046 33.0013C75.6095 32.8652 75.2682 32.632 74.7806 32.3016C74.293 31.9518 73.7663 31.5825 73.2007 31.1938C72.6546 30.8051 72.128 30.4358 71.6208 30.086C71.1332 29.7361 70.7919 29.4835 70.5968 29.328C69.7191 28.6672 69.017 27.9967 68.4903 27.3164C67.9832 26.6362 67.5931 25.9365 67.3201 25.2174C67.047 24.4789 66.8715 23.7112 66.7934 22.9143C66.7154 22.1175 66.6764 21.272 66.6764 20.378C66.6764 19.0175 67.0373 17.7348 67.7589 16.5298C68.4806 15.3248 69.4266 14.2656 70.5968 13.3521C71.7866 12.4386 73.1324 11.7195 74.6343 11.1948C76.1361 10.6506 77.6673 10.3785 79.2276 10.3785C80.5149 10.3785 81.7827 10.5728 83.031 10.9616C84.2793 11.3503 85.4398 12.0111 86.5126 12.944C86.6101 14.1684 86.6784 15.3734 86.7174 16.5589C86.7564 17.7445 86.8149 18.9884 86.8929 20.2905C86.8929 20.5432 86.8344 20.7181 86.7174 20.8153C86.6003 20.893 86.4638 20.9319 86.3078 20.9319C86.1712 20.9319 86.0542 20.8833 85.9567 20.7861C85.5081 20.3586 85.0497 19.9407 84.5816 19.5326C84.1135 19.105 83.6162 18.7357 83.0895 18.4247C82.5824 18.0943 82.0363 17.832 81.4511 17.6376C80.866 17.4238 80.2419 17.3169 79.5787 17.3169C79.1691 17.3169 78.7595 17.3558 78.3499 17.4335C77.9403 17.4918 77.5697 17.6182 77.2382 17.8125C76.9066 17.9874 76.6335 18.2304 76.419 18.5413C76.2239 18.8523 76.1264 19.2507 76.1264 19.7366C76.1264 20.3002 76.1947 20.7861 76.3312 21.1943C76.4677 21.6024 76.7896 22.0008 77.2967 22.3895L82.7384 26.0628C83.7332 26.7431 84.5329 27.4136 85.1375 28.0744C85.7617 28.7158 86.2493 29.3571 86.6003 29.9985C86.9514 30.6399 87.1855 31.2812 87.3025 31.9226C87.4391 32.5445 87.5073 33.1665 87.5073 33.7884C87.5073 35.5376 87.0977 37.0827 86.2785 38.4237C85.4788 39.7453 84.4353 40.8532 83.148 41.7472C81.8607 42.6218 80.3979 43.2826 78.7595 43.7296C77.1406 44.196 75.512 44.4293 73.8736 44.4293C72.6253 44.4293 71.416 44.2932 70.2458 44.0211C69.095 43.7685 68.0222 43.37 67.0275 42.8258L66.6472 34.8671Z" fill="#E60000"/>
<path d="M107.139 20.4363C106.866 22.477 106.602 24.5177 106.349 26.5584C106.115 28.5797 105.968 30.4747 105.91 32.2433C105.91 33.0013 105.968 33.6329 106.085 34.1382C106.202 34.6436 106.368 35.042 106.583 35.3335C106.817 35.625 107.09 35.8388 107.402 35.9749C107.714 36.0915 108.065 36.1498 108.455 36.1498C109.079 36.1498 109.762 36.0623 110.503 35.8874C111.244 35.6931 111.986 35.4501 112.727 35.1586C112.961 35.0614 113.156 34.9934 113.312 34.9545C113.487 34.8962 113.634 34.8671 113.751 34.8671C113.946 34.8671 114.073 34.9545 114.131 35.1294C114.209 35.3044 114.277 35.6153 114.336 36.0623C114.414 36.4899 114.521 37.073 114.658 37.8115C114.794 38.5501 115.019 39.483 115.331 40.6102C115.35 40.7074 115.36 40.7948 115.36 40.8726C115.379 40.9309 115.389 40.9892 115.389 41.0475C115.389 41.3196 115.282 41.514 115.067 41.6306C114.872 41.7472 114.541 41.8832 114.073 42.0387C113.273 42.3108 112.424 42.5926 111.527 42.8842C110.65 43.1562 109.772 43.4089 108.894 43.6421C108.036 43.8754 107.207 44.06 106.407 44.196C105.608 44.3515 104.905 44.4293 104.301 44.4293C101.044 44.4293 98.6639 43.6227 97.1621 42.0096C95.6797 40.3964 94.9386 37.9378 94.9386 34.6338C94.9386 34.0702 94.9581 33.4969 94.9971 32.9138C95.0361 32.3113 95.0848 31.6894 95.1434 31.048C95.3384 29.1045 95.5042 27.2678 95.6407 25.5381C95.7968 23.7889 95.9528 22.1175 96.1088 20.5238H93.0369C91.9836 20.5238 91.2229 20.4849 90.7548 20.4071C90.2867 20.31 90.0527 20.1253 90.0527 19.8532C90.0527 19.7755 90.1502 19.5714 90.3452 19.241C90.5403 18.8912 90.7841 18.483 91.0767 18.0166C91.3887 17.5307 91.7203 17.0157 92.0714 16.4715C92.4225 15.9273 92.7541 15.422 93.0661 14.9555C93.3977 14.4696 93.6805 14.0518 93.9146 13.7019C94.1486 13.3521 94.2949 13.1383 94.3534 13.0606H96.4307C96.6062 11.5835 96.7427 10.3493 96.8403 9.35813C96.9573 8.34749 97.0451 7.51177 97.1036 6.85097C97.1816 6.19017 97.2499 5.68485 97.3084 5.33501C97.3669 4.96574 97.4254 4.69364 97.4839 4.51872C97.5619 4.34381 97.6497 4.23691 97.7472 4.19804C97.8643 4.13973 98.0105 4.09115 98.1861 4.05228C99.0638 3.87736 99.9122 3.72187 100.731 3.58583C101.551 3.43034 102.37 3.27486 103.189 3.11938C104.008 2.96389 104.837 2.78898 105.676 2.59462C106.534 2.38083 107.421 2.13789 108.338 1.8658C108.397 1.8658 108.436 1.8658 108.455 1.8658C108.475 1.84636 108.514 1.83664 108.572 1.83664C108.806 1.83664 108.923 1.91438 108.923 2.06987V2.12817C108.826 3.19712 108.67 4.68392 108.455 6.58859C108.26 8.49326 108.036 10.6506 107.782 13.0606H115.623C115.779 13.0606 115.925 13.1189 116.062 13.2355C116.218 13.3327 116.296 13.5076 116.296 13.7602C116.296 13.8574 116.179 14.2073 115.945 14.8098C115.711 15.4123 115.379 16.1994 114.95 17.1712L113.897 19.5326C113.76 19.8241 113.614 20.0379 113.458 20.1739C113.322 20.31 113.029 20.3974 112.58 20.4363H107.139Z" fill="#E60000"/>
<path d="M131.159 56.2071C131.12 56.2848 131.071 56.3431 131.012 56.382C130.973 56.4403 130.895 56.4695 130.778 56.4695C130.661 56.4695 130.573 56.4598 130.515 56.4403C129.813 56.1877 129.15 55.9739 128.525 55.799C127.901 55.624 127.277 55.4588 126.653 55.3034C126.048 55.1673 125.424 55.0313 124.781 54.8952C124.137 54.7786 123.454 54.6426 122.733 54.4871C122.538 54.4482 122.382 54.3802 122.264 54.283C122.167 54.2053 122.118 54.0595 122.118 53.8457C122.118 53.7874 122.147 53.6416 122.206 53.4084C122.284 53.1946 122.46 52.7379 122.733 52.0382C123.006 51.358 123.425 50.3571 123.991 49.0354C124.556 47.7333 125.336 45.9744 126.331 43.7587C126.039 42.787 125.707 41.6209 125.336 40.2604C124.966 38.8999 124.566 37.4131 124.137 35.8C123.727 34.1868 123.298 32.4862 122.85 30.6982C122.401 28.8907 121.943 27.0735 121.475 25.2465C121.026 23.4002 120.568 21.583 120.099 19.7949C119.651 17.9874 119.212 16.2674 118.783 14.6348C118.646 14.3239 118.568 14.0712 118.549 13.8769C118.529 13.6631 118.52 13.4881 118.52 13.3521C118.52 13.08 118.676 12.9051 118.988 12.8273C120.509 12.4969 122.089 12.1568 123.727 11.807C125.366 11.4377 126.916 10.9713 128.379 10.4076C128.438 10.3882 128.525 10.3785 128.642 10.3785C128.896 10.3785 129.033 10.4757 129.052 10.67L132.621 30.2609C132.699 30.0277 132.846 29.6098 133.06 29.0073C133.294 28.3854 133.558 27.6468 133.85 26.7917C134.162 25.9365 134.504 24.9939 134.874 23.9638C135.245 22.9337 135.625 21.8842 136.015 20.8153C136.405 19.7463 136.786 18.6871 137.156 17.6376C137.546 16.5687 137.907 15.5775 138.239 14.664C138.57 13.7505 138.853 12.944 139.087 12.2443C139.341 11.5446 139.536 11.0199 139.672 10.67C139.75 10.4757 139.897 10.3785 140.111 10.3785C140.17 10.3785 140.209 10.3882 140.228 10.4076C140.248 10.4076 140.287 10.4076 140.345 10.4076C141.808 10.9713 143.31 11.4377 144.851 11.807C146.392 12.1568 147.923 12.4969 149.444 12.8273C149.815 12.9051 150 13.1189 150 13.4687C150 13.7214 149.883 14.1101 149.649 14.6348L137.595 41.7763L131.159 56.2071Z" fill="#E60000"/>
</g>
</g>
</svg>
