<svg width="204" height="8" viewBox="0 0 204 8" fill="none" xmlns="http://www.w3.org/2000/svg">
<g id="Decore">
<mask id="mask0_802_14086" style="mask-type:alpha" maskUnits="userSpaceOnUse" x="0" y="0" width="204" height="8">
<rect id="Rectangle 36" width="204" height="8" fill="#C4C4C4"/>
</mask>
<g mask="url(#mask0_802_14086)">
<path id="Vector" d="M33.5036 -1.73345L34.1464 -1.8415L32.8956 -1.99642L33.4951 -2.10981C34.0964 -2.10878 34.8754 -1.93886 35.2993 -2.02915C35.3511 -2.11656 34.6964 -2.14461 34.5293 -2.21426C34.3815 -2.28565 34.2609 -2.35656 34.1688 -2.42617C34.4963 -2.42542 34.8562 -2.40858 35.2274 -2.37665C35.7267 -2.3245 36.2163 -2.29914 36.6424 -2.30339C37.5137 -2.28931 38.3555 -2.30336 39.3027 -2.30026L38.9876 -2.51064L40.2084 -2.46142C40.3378 -2.44539 40.492 -2.47117 40.6192 -2.45134C41.6772 -2.28358 42.1249 -2.375 42.6328 -2.4508C42.737 -2.47041 42.8624 -2.48506 43.0058 -2.49435C44.4173 -2.45416 45.69 -2.21902 46.9611 -2.0983C47.2003 -2.06748 47.4298 -2.02792 47.6332 -1.98243C48.0753 -1.89398 48.5671 -1.82176 49.0636 -1.77239C49.56 -1.72302 50.0453 -1.69807 50.4751 -1.69981C51.4254 -1.70176 52.4991 -1.64326 53.5922 -1.52996C53.9173 -1.49264 54.2425 -1.46802 54.5473 -1.45767C54.852 -1.44732 55.1296 -1.45146 55.3622 -1.46984L56.1012 -1.34975C56.4216 -1.39848 56.8278 -1.42522 57.2952 -1.42833C57.7627 -1.43145 58.2815 -1.41089 58.8204 -1.36789C59.3946 -1.32125 59.9779 -1.28981 60.5737 -1.24049C61.8044 -1.14622 63.0022 -1.08856 64.1298 -1.06931C65.809 -1.01228 67.4496 -0.968179 69.1437 -0.897072C70.2035 -0.862749 71.236 -0.843872 72.2352 -0.840537C73.4322 -0.827112 74.7269 -0.762119 76.0569 -0.648698C75.9938 -0.542282 75.4106 -0.573721 75.0192 -0.577322C73.7565 -0.595009 72.4642 -0.640842 71.1651 -0.675273C70.5799 -0.688712 70.0107 -0.693803 69.461 -0.690507C68.542 -0.694919 67.5732 -0.723273 66.5712 -0.775087C64.9884 -0.8321 63.4561 -0.859505 61.99 -0.857024C61.8751 -0.852808 61.7697 -0.84534 61.6758 -0.834741C61.6562 -0.825562 61.6524 -0.813985 61.6646 -0.801126C61.6768 -0.788265 61.7048 -0.774546 61.7457 -0.761289C61.7866 -0.748032 61.8392 -0.735679 61.8983 -0.725409C61.9575 -0.715139 62.0214 -0.707293 62.0837 -0.702633C62.666 -0.630515 63.2914 -0.553058 63.8405 -0.542161C63.8617 -0.541347 63.8843 -0.539488 63.9067 -0.536716C63.9291 -0.533945 63.9507 -0.53033 63.9699 -0.526136C65.1992 -0.373888 66.2099 -0.399652 67.1675 -0.374882C68.7573 -0.307936 70.2898 -0.276665 71.7419 -0.281543C71.9614 -0.281211 72.1984 -0.272509 72.4443 -0.25575C73.9652 -0.187815 75.3873 -0.180215 76.6441 -0.233298C77.1613 -0.246746 77.6422 -0.276937 78.1981 -0.277442C78.5404 -0.27952 78.8385 -0.298785 79.0742 -0.334085C79.31 -0.369385 79.4786 -0.41999 79.5699 -0.482856C79.8044 -0.449758 80.0425 -0.42026 80.2815 -0.394716C80.4243 -0.380111 80.5612 -0.37623 80.6645 -0.383873C80.7678 -0.391517 80.83 -0.410111 80.8384 -0.435895C80.8812 -0.508106 80.5554 -0.544369 80.2728 -0.575292C80.4433 -0.590779 80.6353 -0.599889 80.8445 -0.602405C82.0221 -0.618904 83.2853 -0.59943 84.6066 -0.544409C85.6324 -0.47855 86.4512 -0.532155 87.5305 -0.439281C87.6599 -0.423255 87.7664 -0.446776 87.8855 -0.452424C88.1961 -0.482166 88.5829 -0.48885 89.0126 -0.471895C89.4422 -0.454939 89.9016 -0.414852 90.3511 -0.355112C90.9108 -0.518323 92.1198 -0.331869 93.0127 -0.315112C93.2876 -0.232111 92.9722 -0.246702 92.9586 -0.223899C92.9451 -0.201095 92.9586 -0.223903 92.8508 -0.237259C91.9593 -0.119715 90.738 -0.0940841 89.3581 -0.163969C89.1029 -0.163679 88.8598 -0.158323 88.631 -0.147956C88.2845 -0.133281 87.8939 -0.134746 87.4761 -0.152288C87.0197 -0.165171 86.6004 -0.159052 86.2385 -0.134228C86.0303 -0.134631 85.8542 -0.122196 85.7266 -0.0980641C85.599 -0.0739315 85.524 -0.0388867 85.5086 0.00381443C85.6476 0.0367334 85.8018 0.0668554 85.965 0.0929825C86.8174 0.196146 87.6674 0.238847 88.3478 0.212686C89.532 0.167611 90.9412 0.211598 92.2004 0.196209C93.0516 0.189975 93.9574 0.207732 94.9006 0.249148C94.9006 0.249148 94.8758 0.290954 94.8735 0.294754C94.9851 0.312856 95.1023 0.327378 95.2186 0.337492C95.2186 0.337492 95.2186 0.337493 95.2299 0.318489C95.1782 0.300241 95.1081 0.283074 95.0277 0.268975L94.7473 0.234251C94.9379 0.225214 95.1159 0.198309 95.3145 0.214748C95.733 0.245288 96.1329 0.258181 96.4902 0.252661C96.8475 0.24714 97.1549 0.223319 97.3938 0.182626C97.8173 0.130472 98.3439 0.106754 98.9397 0.113004C99.3964 0.107311 99.8364 0.0950729 100.258 0.0763532C100.258 0.0763532 100.285 0.0307506 100.484 0.00651142C100.295 -0.0233831 100.098 -0.0477948 99.9022 -0.065603C99.0489 -0.110093 98.1933 -0.150784 97.3548 -0.181201C97.046 -0.184487 96.7556 -0.179391 96.4893 -0.166011C95.7516 -0.150354 94.9227 -0.172576 94.0511 -0.231379C94.0511 -0.231379 93.8786 -0.252746 93.7923 -0.263431C94.0369 -0.36368 94.8802 -0.263318 95.2214 -0.33121C95.429 -0.329974 95.7943 -0.321438 95.7818 -0.339311C95.7533 -0.363161 95.7499 -0.385318 95.7718 -0.404192C95.7937 -0.423066 95.8404 -0.438191 95.9084 -0.44848C95.9765 -0.458768 96.0642 -0.463968 96.1654 -0.463704C96.2666 -0.463439 96.3788 -0.457716 96.4937 -0.446949C97.4537 -0.388704 98.3579 -0.372506 99.1508 -0.399349C99.4515 -0.398831 99.7885 -0.381568 100.087 -0.377248C100.27 -0.372046 100.436 -0.37494 100.578 -0.385768C101.299 -0.465517 102.269 -0.471341 103.343 -0.402365C103.861 -0.377567 104.346 -0.374251 104.772 -0.392587C105.075 -0.395869 105.203 -0.339169 105.419 -0.312459L106.335 -0.256154L105.159 -0.185603C105.41 -0.0239189 105.61 0.0293933 106.021 0.0394668C106.62 0.0546773 107.203 0.0615499 107.768 0.06004C108.185 0.0587104 108.53 0.0238911 109.095 0.0857364C109.195 0.0958237 109.291 0.0990891 109.368 0.0949832C110.029 0.040079 110.826 0.0274779 111.704 0.0580411C112.159 -0.0447737 112.933 0.0551894 113.649 0.135732C113.88 0.0582859 113.461 0.0227347 113.212 -0.0245198C113.811 -0.019683 114.414 -0.0224451 115.033 -0.0111361C115.218 -0.0152533 115.431 -0.00821069 115.654 0.00943651C115.876 0.0270837 116.102 0.0548518 116.315 0.0905718C116.418 0.113652 116.543 0.131022 116.663 0.139075C116.784 0.147129 116.89 0.14525 116.961 0.133829C117.281 0.100141 117.795 0.131169 118.061 0.0742667C118.155 0.0611801 118.29 0.0593534 118.441 0.0691047C118.592 0.078857 118.75 0.0995569 118.886 0.127494C118.737 0.136211 118.604 0.149936 118.491 0.16837C118.085 0.228249 118.234 0.328299 118.75 0.473757C119.542 0.465757 120.351 0.46803 121.084 0.440614C121.494 0.416005 121.995 0.423698 122.532 0.46283C123.069 0.501961 123.621 0.570979 124.125 0.662123C124.307 0.697171 124.515 0.721444 124.707 0.730125C124.899 0.738807 125.062 0.731258 125.162 0.708976C125.224 0.683206 125.243 0.650593 125.218 0.613962L124.7 0.54986C124.7 0.54986 124.721 0.515655 124.725 0.508053L125.469 0.502307C125.863 0.502107 126.274 0.512182 126.646 0.509312C127.192 0.490223 127.816 0.500864 128.479 0.540572C129.091 0.581289 129.692 0.612067 130.277 0.632633C130.843 0.653802 131.253 0.586317 131.792 0.57554C132.199 0.567416 132.648 0.576098 133.119 0.601245C133.934 0.645845 134.682 0.645928 135.295 0.601485C136.01 0.840934 136.357 0.879865 137.021 0.815164L137.332 0.79668L137.418 0.848037L137.656 0.836744C138.102 0.826685 138.548 0.816629 139.013 0.813041C139.659 0.835263 140.358 0.895048 141.039 0.98656C141.169 1.00259 141.345 1.05704 141.459 1.09967C141.572 1.1423 141.82 1.2709 142.002 1.35462C141.804 1.41573 141.584 1.47417 141.426 1.54443C141.411 1.55643 141.412 1.57075 141.431 1.58622C141.45 1.60169 141.485 1.61789 141.535 1.63352C141.584 1.64914 141.646 1.66376 141.715 1.67619C141.784 1.68862 141.859 1.69852 141.933 1.70509C142.078 1.71926 142.221 1.72871 142.356 1.73304C143.023 1.74051 143.661 1.73496 144.265 1.71643C144.485 1.69029 144.787 1.68781 145.122 1.70938C145.457 1.73095 145.807 1.77534 146.115 1.83551C146.905 1.79938 147.823 1.81006 148.805 1.86678C149.844 1.83228 151.099 1.90204 152.07 1.82646C152.047 1.86446 152.148 1.9299 152.287 1.9676C152.508 2.02486 152.759 2.07793 153.028 2.12456L155.08 2.2156C155.157 2.26242 155.253 2.30981 155.367 2.35715C155.445 2.39456 155.581 2.43115 155.745 2.45919C155.91 2.48723 156.091 2.5045 156.25 2.50735C156.658 2.52122 157.001 2.4902 157.488 2.56684C156.738 2.63928 155.726 2.62966 154.634 2.53968C153.607 2.47125 152.619 2.43705 151.707 2.43835C151.407 2.43783 151.011 2.44183 150.917 2.48322C150.709 2.60021 150.164 2.58172 149.529 2.56014C149.029 2.53652 148.574 2.53917 148.198 2.56788C147.823 2.59658 147.539 2.65053 147.37 2.72527C147.328 2.79748 147.43 2.85912 147.868 2.90114L149.69 3.06963C149.958 3.04797 150.213 3.02232 150.453 2.99281C150.857 2.9536 151.356 2.94284 151.911 2.96136C152.466 2.97988 153.063 3.02718 153.654 3.09958C153.955 3.13698 154.257 3.17437 154.476 3.1566C154.668 3.13619 154.845 3.11176 155.006 3.08347C155.038 3.06452 155.051 3.0427 155.044 3.01886C155.16 3.02995 155.277 3.04436 155.389 3.0616C156.288 3.26274 156.985 3.25926 157.618 3.20709C157.789 3.19158 157.919 3.16693 158.093 3.14762C158.266 3.12831 158.327 3.10325 158.485 3.11054C159.742 3.17651 160.105 2.95618 161.164 2.96503C161.216 2.95643 161.248 2.94356 161.257 2.92762C161.267 2.91168 161.253 2.89318 161.218 2.87382C161.143 2.85634 161.057 2.84131 160.966 2.83011C160.876 2.81891 160.785 2.81189 160.701 2.80972C160.213 2.78144 159.782 2.79011 159.482 2.83424C159.27 2.85228 159.045 2.86664 158.809 2.87727L157.748 2.55821C158.776 2.58745 159.748 2.58726 160.642 2.55764C160.837 2.541 161.167 2.56967 161.441 2.57511L163.461 2.60494C163.876 2.60741 164.23 2.55739 164.809 2.67398C164.809 2.67398 165.191 2.69278 165.293 2.67687C165.395 2.66094 165.848 2.56193 166.117 2.49743C166.431 2.51582 166.864 2.56544 167.059 2.54881C167.4 2.50794 167.695 2.45555 167.939 2.39258L169.159 2.48248C169.157 2.56233 169.113 2.63746 169.026 2.70671C168.931 2.7735 168.934 2.85367 169.035 2.94067C169.137 3.02766 169.333 3.11902 169.609 3.20727L170.813 3.67466C171.01 3.70596 171.219 3.72703 171.414 3.73501C171.608 3.74299 171.777 3.73749 171.898 3.71925C172.416 3.66513 172.997 3.62282 173.515 3.56869C174.184 3.6515 174.012 3.78524 174.498 3.90255L176.072 4.09753C176.312 4.27821 176.557 4.4513 175.827 4.51179C175.682 4.52237 175.779 4.5916 175.647 4.62005C176.215 4.75565 176.839 4.79624 177.414 4.87976C177.641 4.93982 177.831 5.0034 177.974 5.06743C178.132 5.16383 178.451 5.26231 178.863 5.34159C179.275 5.42088 179.747 5.47461 180.177 5.49118C180.898 5.54194 181.636 5.61817 182.358 5.71647C182.605 5.75065 182.859 5.77556 183.102 5.78951C183.345 5.80346 183.573 5.80612 183.769 5.79733C184.468 5.78186 185.059 5.72863 185.505 5.64112C185.946 5.56686 186.54 5.53107 187.234 5.53699C188.42 5.6839 188.659 5.90526 189.377 6.10024L188.137 6.1221C188.092 6.19811 188.174 6.29395 187.666 6.29219C187.157 6.29044 187.415 6.36317 187.58 6.43661C187.638 6.47356 187.751 6.51156 187.901 6.54419C188.05 6.57682 188.227 6.60207 188.4 6.61566L189.455 6.70967C189.83 6.74545 190.192 6.76072 190.502 6.75382C190.813 6.74692 191.059 6.71812 191.215 6.67056C191.393 6.6254 191.64 6.59486 191.939 6.5808C192.321 6.54396 192.634 6.48917 192.869 6.41851L194.359 6.52146C194.422 6.45046 194.627 6.40067 194.938 6.38052C195.25 6.36036 195.649 6.37108 196.068 6.41086L197.072 6.47405C198.189 6.54299 198.434 6.5203 198.761 6.3201L197.422 5.96251C197.616 5.86832 197.804 5.78553 197.992 5.70274C197.659 5.58494 197.213 5.47351 196.702 5.37978C196.225 5.27907 195.734 5.18152 195.232 5.08753C194.687 4.99148 194.111 4.90796 193.435 4.79968C193.317 4.76465 193.145 4.7026 192.926 4.64282C192.706 4.58472 192.477 4.52777 192.24 4.47219C192.285 4.39618 192.325 4.32777 192.239 4.23953C192.655 4.26769 193.086 4.31693 193.491 4.38282C193.897 4.44871 194.265 4.52917 194.562 4.61696C194.611 4.63253 194.673 4.64715 194.741 4.65984C194.809 4.67253 194.883 4.68299 194.958 4.69051C195.69 4.74445 196.04 4.85713 196.398 4.9953C196.639 5.06592 196.949 5.12865 197.287 5.17476C197.934 5.25489 198.567 5.35783 199.186 5.44669C199.375 5.4763 199.572 5.50067 199.768 5.5188C200.415 5.57645 201.065 5.65706 201.687 5.75653C201.89 5.78181 202.085 5.81526 202.255 5.8541C202.426 5.89293 202.567 5.93601 202.666 5.97975C202.512 6.02766 202.429 6.08815 202.422 6.15755C202.395 6.20315 202.849 6.29613 203.064 6.36352C203.279 6.4309 202.857 6.39915 202.715 6.40593C202.128 6.41896 202.019 6.44628 202.371 6.59585C202.488 6.64288 202.566 6.68994 202.599 6.73409C202.633 6.77825 202.621 6.81857 202.566 6.85255C202.482 6.99317 202.229 7.10862 202.055 7.24616C202.325 7.33677 202.777 7.43353 202.826 7.5457C202.85 7.57058 202.9 7.59694 202.973 7.62288C203.045 7.64882 203.139 7.67368 203.247 7.69567C203.53 7.74314 203.789 7.79992 204.001 7.86159C204.213 7.92326 204.374 7.98817 204.471 8.05131C204.503 8.07742 204.579 8.10512 204.686 8.12886C204.792 8.1526 204.92 8.17062 205.043 8.17931C205.191 8.18997 205.324 8.18857 205.414 8.17538C205.503 8.16219 205.543 8.13822 205.525 8.10843C205.529 8.05247 205.509 7.99414 205.467 7.93392C205.491 7.89211 205.516 7.85031 205.418 7.78107C205.86 7.80634 206.324 7.85697 206.76 7.92748C207.196 7.99799 207.587 8.08567 207.89 8.18099C208.225 8.2796 208.534 8.38315 208.905 8.49851C208.829 8.62773 208.829 8.62773 209.619 8.85619L213.813 8.9676L214.672 9.11892C215.474 9.25082 215.664 9.24179 216.168 9.17359L216.506 9.10949C217.218 9.19763 218.038 9.29914 218.483 9.13397C218.627 9.24162 218.722 9.27779 218.689 9.29412C218.476 9.45298 218.107 9.58778 217.596 9.69316C217.465 9.71781 217.374 9.7554 217.222 9.77738C216.732 9.90144 216.618 10.0931 216.904 10.3133C217.046 10.4107 217.252 10.5104 217.516 10.6093C217.13 10.7465 216.619 10.8602 215.996 10.9473C215.467 11.0147 215.032 11.105 214.703 11.2155C214.407 11.3269 213.964 11.4107 213.399 11.462C213.113 11.4838 212.904 11.5269 212.793 11.5868C212.76 11.7491 212.836 11.9229 213.019 12.1043C213.053 12.1595 213.151 12.2191 213.304 12.2785C213.458 12.3379 213.663 12.3954 213.904 12.4465C213.904 12.4465 214.02 12.4853 214.075 12.5085C214.122 12.7051 213.948 12.8783 213.566 13.0166C213.503 13.0558 213.375 13.0841 213.195 13.0985C213.015 13.1129 212.791 13.1128 212.545 13.0982C212.027 13.0748 211.542 13.0719 211.041 13.0587C210.5 13.0401 210.024 13.0548 209.663 13.1012C209.301 13.1476 209.068 13.224 208.986 13.3224C208.981 13.3503 208.965 13.3769 208.939 13.4022C208.924 13.4152 208.915 13.4292 208.914 13.444L210.066 13.7661L208.763 13.8944C208.686 14.0236 209.312 14.1011 209.625 14.197L209.432 14.2506C209.182 14.2809 208.846 14.2229 208.542 14.1893L208.24 14.1519L208.204 14.2127C208.016 14.2955 207.33 14.2025 207.063 14.2632C206.796 14.3239 206.986 14.3924 207.387 14.4583C207.666 14.5074 207.965 14.5464 208.262 14.5727C208.559 14.5989 208.847 14.6115 209.103 14.6097C209.256 14.6032 209.383 14.5883 209.476 14.5661C210.017 14.4714 210.614 14.39 211.264 14.3225C211.762 14.2618 212.386 14.2361 213.091 14.2469C213.298 14.2423 213.548 14.2567 213.797 14.2875C214.045 14.3183 214.276 14.3635 214.45 14.4152L214.815 14.4237C214.815 14.4237 215.015 14.477 214.987 14.4858C214.848 14.6437 215.009 14.8368 215.448 15.0365L215.067 15.0545C214.522 15.036 214.867 15.1563 214.786 15.2156C214.399 15.2044 213.896 15.1544 213.713 15.2295L213.438 15.2241L213.546 15.2374L213.676 15.2128L214.189 15.3252C213.946 15.3441 213.77 15.3672 213.556 15.3773C213.437 15.3862 213.343 15.4018 213.279 15.4233C213.214 15.4447 213.181 15.4716 213.181 15.5022C213.181 15.5494 213.117 15.5891 212.995 15.6175C212.873 15.6459 212.697 15.6622 212.483 15.6646C212.227 15.6657 212.081 15.7169 211.932 15.7351L212.582 16.0441C212.582 16.0441 212.258 16.004 212.434 16.0585L212.457 16.0205L212.851 16.0978C213.135 16.1656 213.333 16.182 213.501 16.1335C213.669 16.0849 213.631 16.1495 213.711 16.1309C213.682 16.1803 213.499 16.2148 213.343 16.2444C213.162 16.2676 212.958 16.2847 212.734 16.2954C213.137 16.5127 213.157 16.5192 212.567 16.5767C211.977 16.6342 212.181 16.7206 211.687 16.7329C211.194 16.7452 211.755 16.8922 212.085 16.9209C212.33 16.9397 212.58 16.9691 212.817 17.0069C213.054 17.0448 213.274 17.0902 213.46 17.1401L213.361 17.3073C213.216 17.2935 213.07 17.2755 212.93 17.2539C212.452 17.1621 212.017 17.0756 211.592 17.129L211.794 17.256L210.31 17.1824C210.348 17.2776 210.575 17.3861 210.941 17.4849C210.886 17.5392 210.852 17.5963 210.84 17.6559C210.815 17.6977 210.668 17.6714 210.573 17.6759C210.233 17.6829 209.954 17.7113 209.761 17.7584C209.567 17.8056 209.465 17.8702 209.463 17.9465C209.425 18.0111 209.948 18.1452 210.274 18.1407C211.09 18.1536 211.972 18.2033 212.873 18.2872C213.422 18.2981 213.5 18.1282 214.403 18.2441C214.421 18.3226 214.305 18.3861 214.073 18.4251C213.841 18.4641 213.506 18.4764 213.118 18.4602C213.338 18.6345 214.562 18.6799 214.616 18.862C214.311 18.8491 213.985 18.8189 213.671 18.7742C213.356 18.7295 213.064 18.672 212.822 18.6072C212.77 18.5913 212.705 18.5766 212.632 18.5645C212.559 18.5524 212.481 18.5433 212.406 18.538C212.331 18.5327 212.26 18.5315 212.201 18.5343C212.141 18.5372 212.095 18.5441 212.066 18.5544C212.236 18.6203 212.422 18.6964 212.634 18.7676C212.847 18.8388 212.898 18.8696 213.051 18.8845C214.194 19.026 214.738 19.281 215.727 19.4483C215.985 19.4804 216.018 19.5823 215.793 19.5708C215.579 19.5593 215.386 19.5608 215.234 19.5751C215.082 19.5895 214.979 19.6161 214.934 19.6521C214.769 19.6941 214.562 19.7275 214.32 19.7514C215.334 20.0131 216.543 20.2443 217.834 20.4233C218.078 20.4586 218.333 20.4802 218.561 20.4848C219.282 20.4851 220.046 20.5058 220.84 20.5467C221.121 20.5578 221.381 20.5568 221.605 20.5436C222.342 20.5124 222.926 20.5807 223.46 20.7733L224.344 21.0786C224.315 21.128 224.166 21.1831 224.052 21.2587L224.743 21.4217L230.012 21.0462L231.069 21.4098L232.586 21.3896C232.702 21.4001 232.819 21.4145 232.931 21.4323C233.238 21.5396 233.478 21.6428 233.811 21.7452C234.143 21.8476 234.738 21.86 235.152 21.9807C235.567 22.1015 235.982 22.1039 236.495 22.1756C236.544 22.2691 236.494 22.3532 236.349 22.4227C236.302 22.5025 236.041 22.5518 235.996 22.6278C236.001 22.7046 235.904 22.7698 235.714 22.8175C235.524 22.8653 235.247 22.8939 234.908 22.901C233.959 23.0646 232.814 23.181 231.508 23.2469C231.394 23.2517 231.299 23.2627 231.229 23.2794C231.159 23.296 231.117 23.3179 231.104 23.3437C231.106 23.4182 231.019 23.4827 230.849 23.5322C230.679 23.5818 230.432 23.6153 230.124 23.6302C230.042 23.6332 229.98 23.6426 229.946 23.6571C229.829 23.6665 229.744 23.6845 229.699 23.7093C229.654 23.7341 229.65 23.7649 229.688 23.7988C229.726 23.8326 229.805 23.8684 229.916 23.9025C230.028 23.9367 230.169 23.9681 230.325 23.9938C230.552 24.0351 230.783 24.0747 231.019 24.1123C231.005 24.1351 230.772 24.1388 230.806 24.1594C230.898 24.2249 230.919 24.2864 230.868 24.3388C230.817 24.3912 230.695 24.4332 230.511 24.4614L231.77 24.9927C232.534 25.0663 233.284 25.1911 233.877 25.3434C233.878 25.3684 233.844 25.3893 233.778 25.4041C233.713 25.4189 233.618 25.427 233.503 25.4277C233.196 25.4385 232.905 25.4597 232.574 25.4717C232.372 25.4807 232.203 25.5004 232.079 25.5298C231.954 25.5592 231.875 25.5976 231.848 25.6428L232.587 25.8405C232.35 25.8886 232.175 25.9117 232.018 25.9413C232.107 26.0034 232.259 26.0677 232.464 26.1291C232.668 26.1905 232.919 26.2474 233.197 26.2954C233.272 26.3053 233.348 26.3126 233.421 26.3167C233.494 26.3209 233.563 26.3218 233.623 26.3196C234.195 26.2518 234.865 26.3715 235.516 26.4847C236.166 26.5979 236.519 26.6661 237 26.7541L237.919 26.7659C238.151 26.8076 238.359 26.8566 238.525 26.9091C238.69 26.9615 238.81 27.0159 238.874 27.0679C238.824 27.1515 238.389 27.1056 238.129 27.1143C237.513 27.1663 236.702 27.1552 235.833 27.0828C235.617 27.0561 235.396 27.0777 235.186 27.0802C234.733 27.0906 234.298 27.1076 233.883 27.1309C233.609 27.1527 233.353 27.1796 233.117 27.2116C233.054 27.318 234.047 27.4002 233.484 27.4528C233.678 27.4768 233.75 27.5103 233.85 27.4982C234.49 27.5673 235.119 27.6014 235.667 27.5967C236.717 27.582 237.91 27.6305 239.148 27.7382C240.484 27.8498 241.765 27.8966 242.887 27.8749C243.314 27.8736 243.791 27.8964 244.282 27.9417C244.862 28.0043 245.438 28.0437 245.973 28.0572C246.15 28.0577 246.347 28.0684 246.549 28.0884C246.75 28.1083 246.95 28.1371 247.132 28.1722C247.116 28.1988 246.943 28.2181 246.981 28.2311C247.535 28.4301 247.759 28.6374 248.611 28.8408C249.193 28.9129 249.861 28.9957 250.242 28.9001C250.623 28.8045 250.487 28.7223 249.729 28.4775C249.893 28.474 250.091 28.4854 250.288 28.5098C250.485 28.5343 250.669 28.5701 250.807 28.6111L251.462 28.7942L252.053 28.9694C252.001 29.0568 251.961 29.1252 251.918 29.1974C251.85 29.2741 251.925 29.3675 252.13 29.4644C252.254 29.5173 252.362 29.5702 252.453 29.6227C252.822 29.8325 252.929 30.0308 252.762 30.1953C252.441 30.432 251.994 30.6496 251.427 30.8459C250.828 31.0369 250.5 31.2778 250.006 31.4859C249.754 31.5806 249.448 31.6655 249.092 31.7398C248.415 31.9048 247.674 32.0619 246.995 32.2307C246.316 32.3996 245.55 32.5209 244.796 32.66C243.674 32.8252 242.461 32.9679 241.163 33.0872C240.361 33.1918 239.536 33.2936 238.794 33.4138C237.917 33.5493 236.886 33.6465 235.728 33.7032C234.706 33.7711 233.792 33.8714 233.005 34.0023C232.922 34.0165 232.857 34.0345 232.811 34.0558C232.669 34.1893 232.272 34.2834 231.68 34.3237C231.716 34.3628 231.762 34.4025 231.818 34.4427C231.9 34.4907 231.917 34.5355 231.867 34.5715C231.817 34.6075 231.702 34.6329 231.536 34.6445C231.063 34.6775 230.669 34.7337 230.373 34.8104C230.264 34.8297 230.197 34.8578 230.176 34.8922C230.156 34.9266 230.183 34.9664 230.256 35.0081C230.32 35.051 230.325 35.0905 230.269 35.1215C230.214 35.1524 230.101 35.1734 229.945 35.1817C229.544 35.2223 229.115 35.255 228.66 35.2795C227.692 35.3337 226.566 35.333 225.351 35.2776C225.221 35.2616 225.091 35.2863 224.94 35.2676C224.08 35.2055 223.282 35.1959 222.641 35.2399C221.89 35.257 221.105 35.2536 220.314 35.2616C219.17 35.2563 218.114 35.2889 217.177 35.3587C216.106 35.2913 215.504 35.4085 214.6 35.4107C213.765 35.4227 212.974 35.4516 212.234 35.497C211.041 35.5573 209.852 35.61 208.676 35.6806C207.573 35.7142 206.557 35.7785 205.646 35.8723C205.296 35.9147 204.664 35.8486 204.426 35.9375C204.188 36.0263 203.709 36.0159 203.321 36.0453L202.097 36.1181C201.886 36.1355 201.655 36.1464 201.406 36.1509C200.268 36.1568 199.48 36.2755 198.424 36.2997L198.317 36.2863C196.441 36.4627 194.296 36.5595 191.942 36.5738C190.567 36.628 189.064 36.6254 187.606 36.665C187.258 36.7443 186.436 36.6466 185.999 36.719C185.563 36.7914 184.85 36.7439 184.288 36.7558C183.725 36.7678 183.175 36.7975 182.574 36.7965C182.052 36.7968 181.611 36.8292 181.291 36.8906C180.562 36.9921 179.673 37.0517 178.663 37.0669C177.328 37.0933 176.066 37.1531 174.708 37.14C174.727 37.2139 174.644 37.2769 174.467 37.3223C174.289 37.3677 174.024 37.394 173.698 37.3984C172.246 37.4266 170.929 37.5001 169.458 37.5219L169.065 37.5221L164.664 37.5646C163.479 37.5728 162.336 37.5863 161.127 37.5956C160.674 37.5395 160.663 37.6361 160.35 37.6177C160.262 37.5701 160.159 37.5492 160.005 37.575L159.971 37.632L154.949 37.7076C152.983 37.7629 150.915 37.7795 148.762 37.7572C148.252 37.7628 147.775 37.7817 147.34 37.8136C146.937 37.8252 146.516 37.8304 146.081 37.829C145.492 37.8146 144.917 37.8074 144.357 37.8073C142.886 37.829 141.342 37.8173 139.731 37.8014C138.12 37.7854 136.9 37.8137 135.466 37.8116C134.495 37.8096 133.528 37.8 132.523 37.7775C132.043 37.767 131.452 37.7101 130.955 37.6894C130.458 37.6686 130.295 37.6689 130.23 37.7016C130.013 37.7931 129.47 37.7339 129.035 37.725C128.188 37.7098 128.067 37.6785 127.837 37.442L128.877 37.3668C129.132 37.3425 129.452 37.3383 129.808 37.3544C130.163 37.3705 130.541 37.4066 130.906 37.459C131.049 37.4814 131.199 37.4992 131.347 37.5112C131.495 37.5232 131.638 37.5292 131.767 37.5289C132.817 37.5161 133.851 37.4892 134.86 37.4672L135.007 37.4529L135.016 37.2419C134.883 37.2212 134.744 37.204 134.606 37.1911L129.549 37.0542C128.388 37.0206 127.183 36.9448 126.044 36.9139C124.904 36.8829 124.291 36.864 123.407 36.832C123.034 36.8138 122.653 36.7899 122.269 36.7604C122.291 36.7401 122.304 36.7185 122.307 36.6958C122.327 36.6616 122.354 36.616 122.191 36.5794C122.012 36.5278 121.774 36.4837 121.523 36.456C121.287 36.4376 121.059 36.4273 120.847 36.4252C119.821 36.4076 118.649 36.2961 117.582 36.1147L117.209 36.2358C115.606 36.1677 113.979 36.1008 112.304 36.0362C111.969 36.0186 111.617 35.9848 111.274 35.9373C110.908 35.8919 110.571 35.7971 110.185 35.7452C109.803 35.7078 109.424 35.6787 109.055 35.6584C109.155 35.6272 109.287 35.6023 109.447 35.5844C109.603 35.5782 109.718 35.5587 109.773 35.5288C109.828 35.499 109.821 35.4603 109.753 35.4184C109.634 35.3465 109.581 35.2788 109.841 35.2702C110.081 35.2538 110.253 35.2183 110.336 35.1679C110.419 35.1175 110.41 35.0543 110.311 34.9857C110.267 34.9456 110.236 34.9063 110.218 34.8682L110.11 34.8548C109.755 34.7129 109.044 34.6616 108.534 34.5454C108.294 34.5117 108.045 34.4923 107.826 34.4903C107.262 34.4654 106.713 34.4545 106.13 34.423C105.851 34.4086 105.56 34.3822 105.273 34.3455C104.863 34.2947 104.82 34.2894 104.582 34.1049C104.952 34.1081 105.245 34.0805 105.412 34.0269C105.578 33.9732 105.609 33.8967 105.498 33.8103C105.193 33.6216 104.871 33.4226 103.492 33.2886C103.942 33.282 104.375 33.2688 104.789 33.2492C104.909 33.245 104.999 33.2312 105.047 33.2095C105.095 33.1879 105.098 33.1595 105.056 33.1281C105.014 33.0967 104.93 33.0639 104.813 33.034C104.696 33.0042 104.554 32.9786 104.404 32.9609C103.676 32.8542 102.917 32.7827 102.211 32.7546C101.617 32.7422 101.08 32.7491 100.386 32.7488L99.5663 32.6473C99.5799 32.6245 99.4595 32.5933 99.4901 32.5808C99.6983 32.4638 99.928 32.3494 100.165 32.2237C99.7868 32.1558 99.4595 32.0739 99.2201 31.9872C98.9808 31.9006 98.8391 31.8128 98.8114 31.7338C98.791 31.71 98.7963 31.6883 98.827 31.6703C98.8577 31.6522 98.913 31.6383 98.989 31.6294C99.2047 31.6141 99.3713 31.5849 99.4758 31.5441C99.5802 31.5033 99.6198 31.4519 99.5915 31.394L98.9542 31.1804C97.0354 31.028 95.151 30.9191 93.3361 30.8558L91.6978 30.8079C91.5001 30.7508 91.5613 30.7257 91.7473 30.7243C91.9334 30.7229 92.4564 30.7387 92.8218 30.7472C93.1372 30.7584 93.4175 30.7511 93.6352 30.7259C93.8529 30.7007 94.0008 30.6585 94.0645 30.6033L93.5144 30.3598C93.5414 30.3142 93.5797 30.2496 93.878 30.2539C94.0819 30.2486 94.2321 30.2257 94.3044 30.1887C94.3767 30.1518 94.3669 30.103 94.2765 30.0503C94.2628 30.0122 94.2834 29.9775 94.3373 29.9477C94.7786 29.9452 95.2176 29.9466 95.6181 29.935C95.8046 29.9311 95.962 29.917 96.0797 29.8936C96.1975 29.8701 96.2728 29.838 96.3004 29.7992C96.3149 29.7614 96.2796 29.7183 96.1977 29.6734C96.1157 29.6285 95.9892 29.5831 95.8285 29.5408C95.2009 29.4886 94.6269 29.4879 94.2323 29.539C94.0916 29.579 93.8657 29.6009 93.5842 29.6017C93.3027 29.6025 92.9788 29.5823 92.6554 29.5436C92.2851 29.499 91.9156 29.4794 91.6133 29.4883C91.3109 29.4972 91.0957 29.5341 91.0062 29.5922C90.6261 29.5696 90.2891 29.5524 89.9566 29.5275C89.5644 29.4961 89.1936 29.4869 88.8844 29.5008C88.3896 29.5106 87.8566 29.5049 87.2972 29.4837C85.6849 29.4309 84.0704 29.3819 82.5093 29.3599C82.0963 29.3536 81.739 29.3705 81.3306 29.3567C80.9221 29.3428 80.599 29.3803 80.0881 29.3048C79.9909 29.293 79.8929 29.2855 79.8022 29.2827C79.7114 29.28 79.6302 29.2821 79.5651 29.2889C78.6681 29.3486 77.6163 29.3571 76.4716 29.3138C74.9037 29.3031 73.2779 29.2731 71.7078 29.2663C71.2473 29.2722 70.8121 29.2879 70.4068 29.3132C70.0983 29.3286 69.7753 29.339 69.4393 29.3444C69.1818 29.3492 68.9355 29.335 68.9789 29.4179C69.0224 29.5008 68.6365 29.4489 68.4141 29.4336C67.6499 29.3934 66.8689 29.339 66.0798 29.271C65.3023 29.197 64.5404 29.154 63.8399 29.1445C63.3339 29.1389 62.8121 29.16 62.1616 29.0468C62.1864 29.005 62.2111 28.9632 62.3528 28.9195C61.8223 28.7994 61.217 28.696 60.5869 28.618C59.9569 28.54 59.3203 28.4895 58.7297 28.4708L57.9153 28.2434C57.7148 28.2167 57.5101 28.1973 57.3136 28.1863C57.1172 28.1753 56.9331 28.173 56.7726 28.1794C56.6486 28.1827 56.4974 28.1743 56.3469 28.1556C56.1963 28.137 56.0565 28.1094 55.9531 28.0779C55.7984 28.0379 55.6096 28.0034 55.4101 27.9787C55.2106 27.954 55.0094 27.9402 54.8317 27.939C54.2721 27.9143 53.6748 27.8572 53.1009 27.7736C52.952 27.7246 52.8586 27.674 52.8324 27.628C52.8062 27.582 52.8483 27.5426 52.9535 27.5147C53.123 27.4654 53.2182 27.4027 53.2333 27.3302C53.2484 27.2577 53.183 27.1771 53.0413 27.0931C52.9686 27.0416 52.9444 26.9928 52.9699 26.9497C52.9955 26.9066 53.0703 26.87 53.1899 26.8423C53.6363 26.714 53.5169 26.6421 52.7865 26.4292C52.6679 26.3938 52.5249 26.3606 52.3665 26.3319C52.2082 26.3031 52.0381 26.2794 51.8669 26.2623C51.4652 26.2276 51.069 26.2018 50.6856 26.1854C50.4699 26.1587 50.2488 26.1802 50.0003 26.1698C48.7579 26.1179 48.576 26.0342 48.1736 25.8538L47.8804 25.7237C47.3365 25.6183 46.7417 25.5307 46.1388 25.4673C45.5359 25.4039 44.9399 25.3663 44.3938 25.3571C44.1767 25.3565 43.9272 25.3384 43.6834 25.3059C42.89 25.2063 42.0866 25.1374 41.3262 25.1037C40.8524 25.0847 40.3417 25.0357 39.8554 24.9624C39.3691 24.8892 38.9279 24.7948 38.5847 24.6907C38.2765 24.5969 37.8733 24.5128 37.4311 24.4499C36.9135 24.3858 36.8656 24.3105 37.1546 24.2525C37.4437 24.1945 37.9277 24.1198 38.3574 24.0588C38.5069 24.0381 38.5996 24.0043 38.625 23.9614C38.6505 23.9184 38.6078 23.868 38.5016 23.8156C38.4334 23.7259 38.4216 23.6408 38.4664 23.5623C38.4904 23.5297 38.4738 23.4924 38.4179 23.4527C38.362 23.4131 38.268 23.3721 38.1423 23.3326C38.0165 23.293 37.862 23.2558 37.689 23.2235C37.516 23.1912 37.3287 23.1644 37.1396 23.1451C36.3416 23.0463 35.5653 22.9501 34.7515 22.8779C34.4105 22.8438 34.0699 22.8016 33.7379 22.7523C33.0584 22.6304 32.3315 22.5293 31.5993 22.4548C31.2518 22.4216 30.9121 22.3634 30.6537 22.2928C29.8385 22.1029 29.0874 21.9031 28.4139 21.6972C28.2516 21.6334 28.0392 21.5711 27.7901 21.5142C27.5409 21.4574 27.2604 21.4073 26.9661 21.367C26.7289 21.3376 26.5357 21.2729 26.3529 21.2298C26.22 21.1302 26.2058 21.0379 26.3117 20.9619C26.4175 20.8858 26.6399 20.8283 26.9579 20.7948C27.2595 20.7547 27.5418 20.708 27.8025 20.6587C28.1168 20.6189 28.4904 20.5949 28.9094 20.5878C29.4058 20.5664 29.7728 20.5052 29.9626 20.4122C28.6039 20.244 27.3119 20.0024 26.121 20.0588L25.2161 19.906C25.2521 19.8452 25.2837 19.792 25.3129 19.7425C25.5281 19.6526 25.5954 19.5392 25.5089 19.4119C25.4376 19.3503 25.4441 19.2943 25.5275 19.2495C25.611 19.2046 25.7686 19.1726 25.9843 19.1567C27.2621 18.9926 28.7398 18.8819 29.9381 18.6958C30.3138 18.6609 30.7536 18.645 31.2391 18.6489C31.7087 18.6377 31.6891 18.5537 31.1486 18.45C30.8453 18.3959 30.5361 18.344 30.2222 18.2945C28.8382 18.2863 28.2743 18.5346 26.6949 18.4655L25.9628 18.1382C25.7649 18.1331 25.5727 18.1311 25.3876 18.1322L22.7393 18.2652C22.5187 18.2719 22.347 18.2946 22.2437 18.3309C22.1404 18.3671 22.1096 18.4154 22.1548 18.4702C22.1727 18.5373 22.1362 18.5989 22.0467 18.6526C21.9889 18.6903 22.0259 18.7403 22.1494 18.7918C22.4279 18.9079 22.0706 18.9249 21.845 18.954C21.7873 18.9569 21.7208 18.9566 21.6493 18.9531C21.5778 18.9497 21.5028 18.9432 21.4286 18.934C21.3543 18.9248 21.2824 18.9131 21.2169 18.8996C21.1514 18.8861 21.0937 18.871 21.047 18.8552C20.6495 18.7448 20.3018 18.6283 19.911 18.5065C20.1885 18.3899 19.862 18.1985 20.2949 18.093C20.3434 18.0719 20.3627 18.0463 20.3519 18.0176C20.341 17.9889 20.3002 17.9577 20.2318 17.9261C20.0555 17.8444 19.9716 17.7648 19.9884 17.6953C20.0052 17.6257 20.1222 17.5687 20.3277 17.53L20.3524 17.4882C19.8107 17.3477 19.9542 17.2227 19.7414 17.0739L19.2203 16.9768C17.9238 16.7427 17.9215 16.7465 16.8052 16.7551C16.5802 16.6661 16.8661 16.6525 17.0805 16.6424L18.8759 16.5425C20.0497 16.4757 21.2577 16.4295 22.569 16.4043C23.8803 16.379 25.3423 16.2949 26.6977 16.2343C26.7662 16.2296 26.8186 16.2203 26.8505 16.2073C26.8824 16.1942 26.8929 16.1777 26.8811 16.1591C26.8272 16.1391 26.7567 16.1197 26.6748 16.1025C26.5928 16.0853 26.5015 16.0707 26.4076 16.0597C25.9763 16.0063 25.5337 15.9719 25.0741 15.9272L24.2172 15.8496L23.9536 15.7476C23.782 15.6855 23.6648 15.6098 23.4366 15.5653C23.2485 15.532 23.0444 15.5068 22.8454 15.4922C22.6464 15.4776 22.4598 15.4741 22.3052 15.4822C21.8765 15.5026 21.4886 15.532 21.0792 15.5588C20.6698 15.5857 20.4442 15.6148 20.0891 15.628C19.3678 15.6339 18.6707 15.6497 18.0008 15.6753C17.4366 15.7357 16.9147 15.8074 16.4385 15.8897C16.1414 15.9223 15.8636 15.9613 15.3563 15.9189C15.1157 15.8804 14.9081 15.8299 14.7704 15.7762C14.6327 15.7226 14.5738 15.6693 14.6041 15.6258C14.6313 15.5918 14.7083 15.5648 14.828 15.5475C14.9476 15.5302 15.1058 15.5231 15.2877 15.5269C15.7969 15.5206 16.2678 15.4996 16.6908 15.4641C17.2796 15.3998 17.9964 15.3721 18.7993 15.3826C19.0716 15.3918 19.2542 15.3573 19.4923 15.346C19.7305 15.3347 19.9323 15.3067 20.1979 15.3273C21.0228 15.3805 21.4184 15.299 21.9128 15.246C22.0802 15.2225 22.1838 15.1845 22.2125 15.1362C22.2411 15.0879 22.1935 15.0312 22.075 14.9723C21.8468 14.855 21.5677 14.7371 21.2419 14.6203C21.0743 14.5629 20.8595 14.5084 20.6145 14.4611C20.3694 14.4137 20.1007 14.3748 19.8295 14.3475C19.6671 14.2756 19.5805 14.205 19.5775 14.1419C19.5744 14.0789 19.6551 14.0254 19.8121 13.9863C20.2121 13.8972 20.5668 13.8065 21.4632 13.8563C21.8847 13.8753 22.2813 13.879 22.6374 13.8671C23.4272 13.8508 24.3382 13.8864 25.2845 13.9706C25.5294 13.9921 25.7701 14.0068 25.9994 14.0142C27.6355 14.0659 29.1944 14.0917 30.7577 14.1099C31.5859 14.1187 32.4208 14.116 33.2854 14.1415C35.3129 14.1968 37.1585 14.1684 39.1155 14.1864C40.1405 14.1957 41.0579 14.1584 41.8196 14.0766C41.9679 14.0492 42.0953 14.0172 42.2003 13.981C41.6955 13.886 41.1411 13.8108 40.59 13.7625C40.039 13.7143 39.5099 13.6946 39.0533 13.7055C38.8024 13.7321 38.4779 13.7369 38.1163 13.7195C37.7547 13.7021 37.37 13.6631 37.0052 13.6068L38.0658 13.575C38.7691 13.5601 39.4894 13.5555 40.1734 13.5342C41.2601 13.4974 42.2672 13.4385 43.3924 13.4147C44.3009 13.3928 45.1139 13.3369 45.8058 13.2486C46.3057 13.1842 46.8766 13.1385 47.5069 13.1125C47.955 13.0986 47.955 13.0986 48.2414 12.9669C48.0142 12.8816 47.7203 12.8697 47.4435 12.868C45.7839 12.8144 44.2046 12.805 42.7377 12.84C41.9975 12.8431 41.3409 12.8793 40.7993 12.9467C40.6667 12.9752 40.3275 12.9617 40.0552 12.9524C39.2015 12.9384 38.3856 12.9425 37.6173 12.9646C36.555 13.0016 35.3719 12.9928 34.114 12.9387C33.8755 12.8724 34.15 12.8779 34.1635 12.8551C35.1378 12.8126 36.0929 12.7636 37.0865 12.7276C37.3581 12.7147 37.6484 12.7084 37.9542 12.7086C39.0959 12.7309 40.0472 12.669 40.675 12.5315C40.7066 12.4783 41.1195 12.4846 41.302 12.4501C41.3918 12.4202 41.4516 12.385 41.4796 12.3456C41.2138 12.2474 40.9131 12.2469 40.6817 12.2468C40.0102 12.2577 39.3641 12.2785 38.7467 12.309C38.1727 12.338 37.5373 12.3458 36.8578 12.3321C36.3564 12.3189 35.9276 12.3393 35.4217 12.3337C35.1472 12.322 34.8631 12.3033 34.5751 12.2778C34.8958 12.2094 35.3316 12.1673 35.852 12.1545C36.2466 12.1136 36.74 12.1013 36.8031 11.9949C36.6167 11.9187 36.4091 11.9175 36.2424 11.9254C35.8953 11.9251 35.5601 11.9299 35.2385 11.9398C34.5564 11.9614 33.818 11.9617 33.0387 11.9407C32.6284 11.9328 32.239 11.9352 31.8771 11.9477C31.057 11.9645 30.2709 12.0017 29.52 12.0189C27.9818 12.0364 26.5788 12.0993 25.1008 12.1324C24.7718 12.1406 24.4769 12.1694 24.0433 12.1198C23.6098 12.0702 23.5905 12.0637 23.5393 12.0329C23.418 11.9815 23.3812 11.9316 23.4366 11.8937C23.5226 11.8583 23.6902 11.8385 23.9094 11.838C25.2307 11.7816 26.4839 11.7025 27.6612 11.601C28.1793 11.5807 28.6332 11.5392 29.0072 11.4781C29.3038 11.4359 29.6556 11.4081 30.0517 11.3953C30.6276 11.3648 31.2281 11.3425 31.8506 11.3284C32.1403 11.3209 32.3865 11.2983 32.575 11.2621C32.7634 11.2259 32.8902 11.1767 32.9478 11.1176L32.1847 10.9211C32.0648 10.9119 31.9458 10.904 31.8283 10.8973L25.4942 11.0389L24.8669 11.0428C24.1793 11.0311 24.0113 11.0021 23.3591 10.7745C24.8475 10.7209 26.0175 10.5648 26.7526 10.3217C26.5759 10.2956 26.3948 10.2731 26.2134 10.2549C25.024 10.1975 23.8996 10.1822 22.8836 10.2097C22.2801 10.2125 21.6596 10.205 21.0367 10.2013C21.2189 10.0892 21.9167 10.1226 22.3715 10.0973C23.4582 10.0578 24.4191 9.97612 25.2236 9.85495C25.501 9.8077 25.848 9.77749 26.2487 9.7657C26.6498 9.76164 26.9848 9.73304 27.2246 9.6824C27.4644 9.63175 27.6018 9.5606 27.6247 9.47512C27.6624 9.39773 27.7439 9.32582 27.8677 9.26045C27.6486 9.1677 27.3008 9.07888 26.8894 9.01066C26.4781 8.94244 26.0315 8.8995 25.6335 8.88991C24.7838 8.85172 23.9026 8.7892 23.0121 8.70395C22.5686 8.66095 22.1336 8.63627 21.7355 8.63151C21.3845 8.62785 20.9855 8.5968 20.5993 8.54308C20.2132 8.48937 19.8612 8.41594 19.5969 8.33401C19.2403 8.23272 18.9074 8.1303 18.5746 8.02788C18.2417 7.92547 17.8555 7.79604 17.467 7.67041C17.1244 7.65076 16.7908 7.63813 16.4708 7.6327C16.2218 7.6373 15.9312 7.6236 15.6334 7.59322C15.3355 7.56284 15.0428 7.51704 14.7899 7.46123C14.9382 7.40617 15.106 7.35759 15.2827 7.29381C15.0401 7.20958 14.8643 7.12368 14.7658 7.04135C14.6673 6.95902 14.6483 6.88198 14.71 6.81492C14.746 6.75411 14.4823 6.65211 14.3912 6.57147C14.274 6.50196 14.2519 6.43709 14.328 6.38536C14.4041 6.33363 14.5748 6.29747 14.8177 6.28161C15.119 6.25234 15.3641 6.20825 15.5432 6.15117C15.6024 6.13635 15.6326 6.11606 15.6309 6.09214C15.6292 6.06823 15.5957 6.04146 15.5335 6.01428C15.4713 5.9871 15.3824 5.96037 15.2749 5.93655C15.1674 5.91273 15.0447 5.89258 14.9181 5.87793C14.5301 5.83639 14.1449 5.80947 13.7844 5.79871C13.1634 5.77891 12.5689 5.76648 12.0009 5.7614C11.3727 5.75376 10.6738 5.70662 9.97528 5.62475C9.34986 5.54729 8.78914 5.47784 8.48333 5.32982C8.17752 5.1818 7.68858 5.18652 7.31261 5.07876C7.5238 4.98162 7.89919 4.91413 8.40086 4.8831C8.72914 4.87202 9.00318 4.84294 9.20538 4.79773C9.40758 4.75252 9.53348 4.69218 9.57502 4.62057L8.43358 4.32009C7.52201 4.17864 7.01765 4.28751 6.03271 4.2308L7.04756 4.11988C7.06795 4.10891 7.07558 4.09604 7.07009 4.08187C6.97155 3.85753 6.81478 3.80956 5.77736 3.68515L5.1951 3.61304L4.27353 3.52745C4.12593 3.48148 4.02386 3.43353 3.97748 3.38841C3.9311 3.34329 3.94204 3.30258 4.00923 3.27035C4.14425 3.21614 4.1853 3.14687 4.12861 3.06891C4.03923 3.01728 4.03186 2.96967 4.10776 2.93436C4.18366 2.89905 4.33804 2.87826 4.54413 2.87561C4.70861 2.8715 4.72082 2.81182 4.81029 2.77803C4.8992 2.73145 5.05137 2.69571 5.25642 2.67324C5.46148 2.65077 5.71458 2.64208 5.99859 2.64779C6.83591 2.65245 7.62251 2.63497 8.3444 2.59565L8.21501 2.57962C8.96744 2.61414 9.67089 2.61833 10.2911 2.59198C10.9126 2.55881 11.7103 2.58009 12.3704 2.55986C12.9079 2.5645 13.317 2.5186 13.5111 2.43189C13.6991 2.3491 14.3821 2.36843 14.9051 2.38425C15.215 2.39449 15.5144 2.39883 15.8003 2.39721C16.184 2.37848 16.6638 2.39614 17.1596 2.44726C17.3084 2.46297 17.4549 2.47129 17.5851 2.47141C18.8456 2.49289 20.1038 2.51818 21.3472 2.52939C21.6342 2.52293 21.9707 2.53772 22.3173 2.57203C22.463 2.58693 22.6047 2.5931 22.7236 2.58971C24.6883 2.55564 26.9053 2.64257 28.8314 2.59556C29.0649 2.58445 29.3233 2.58215 29.5994 2.58869C30.2199 2.61631 30.7587 2.59854 31.1341 2.53807C31.3366 2.50591 31.5963 2.48819 31.8965 2.48604C32.1967 2.48388 32.5309 2.49735 32.8777 2.52557C33.4549 2.56294 33.9883 2.56699 34.4217 2.5373C35.2667 2.50987 36.1554 2.49859 37.0807 2.50355C37.3643 2.50835 37.6135 2.49769 37.8091 2.4724C38.0048 2.44711 38.1415 2.40786 38.2088 2.3577C37.9816 2.27244 37.7331 2.26206 37.4972 2.26956C36.5827 2.25013 35.6705 2.2269 34.7732 2.21775C33.9699 2.1916 33.1992 2.1836 32.4724 2.19388C32.1115 2.20548 31.6611 2.17903 31.2196 2.12032C30.6785 2.04595 30.1212 2.00901 29.6604 2.01695C29.3188 2.01892 28.9582 2.01252 28.5838 1.99783C28.3441 1.98011 28.0985 1.94969 27.8721 1.90969C27.7823 1.89232 27.6845 1.87771 27.585 1.8668C27.4855 1.85589 27.3866 1.84893 27.2945 1.84635C27.2023 1.84376 27.119 1.84562 27.0498 1.8518C26.9807 1.85798 26.9273 1.86836 26.893 1.88225C26.5463 1.99842 25.7712 1.93914 25.1075 1.92629C24.1129 1.72967 23.3726 1.84604 22.443 1.73499C22.3695 1.72763 22.2971 1.72317 22.2302 1.72189C22.1633 1.72062 22.1033 1.72256 22.0539 1.72758C20.2549 1.79443 18.1582 1.73872 16.2695 1.7618C16.0612 1.76518 15.8194 1.75361 15.5717 1.72841C13.9525 1.56163 12.3957 1.51428 11.2057 1.59563C11.0609 1.60295 10.8962 1.60326 10.719 1.59655C9.90543 1.53026 9.12737 1.50384 8.44982 1.51947C7.38795 1.51442 6.36698 1.51852 5.28805 1.5032C4.54431 1.48139 3.89186 1.50469 3.39605 1.57075C3.38028 1.59735 3.05001 1.56869 2.79701 1.56591C2.65151 1.49893 2.52537 1.43844 2.37537 1.37906C2.24127 1.30561 2.0404 1.23128 1.78643 1.16111C1.53246 1.09094 1.23135 1.02658 0.90338 0.972379C0.342661 0.902932 0.286584 0.802157 0.678943 0.765082C1.69025 0.642418 2.96191 0.592213 4.40044 0.618152C5.60297 0.620224 6.82709 0.624974 8.04668 0.637319C8.75803 0.64791 9.50794 0.671435 10.2 0.675554C10.4335 0.684606 10.6734 0.697943 10.9171 0.715425C11.2162 0.74077 11.5066 0.754581 11.7727 0.756114C12.627 0.734768 13.5804 0.753365 14.5875 0.811012C14.9564 0.823584 15.3106 0.827819 15.6449 0.82366C16.4356 0.808011 17.293 0.819527 18.1941 0.857903C18.7542 0.879543 19.2972 0.890858 19.8177 0.891727C20.0015 0.894093 20.1511 0.875915 20.3282 0.889681C21.8864 1.03372 22.9898 0.929679 24.3922 0.985066C25.0738 1.00051 25.725 1.00055 26.3366 0.985199C27.5302 0.98594 28.7572 1.00173 30.0124 1.03251C31.6724 1.08307 33.2106 1.06553 34.7955 1.0864C35.1084 1.09079 35.4105 1.09004 35.6997 1.08416C37.1062 1.04531 38.6339 1.05355 40.2455 1.10868C40.6114 1.11665 40.9401 1.1069 41.2109 1.08008C41.4818 1.05325 41.6889 1.00991 41.8194 0.952771C41.8746 0.913557 41.8388 0.86262 41.719 0.80979C41.5201 0.74232 41.2954 0.676214 41.0488 0.61256L32.0777 0.398966C31.701 0.387813 31.3335 0.381808 30.9773 0.380979C29.9296 0.379121 28.8496 0.362503 27.7428 0.33121C26.649 0.301817 25.6042 0.307034 24.5446 0.298185C24.2325 0.29522 23.9121 0.288225 23.5848 0.277221C21.3723 0.190121 19.215 0.136921 17.1279 0.118004C16.2498 0.115321 15.3013 0.0753466 14.4061 0.0623907C13.511 0.0494347 12.2869 0.0446898 11.225 0.0396395L7.93743 0.0404149C7.29078 0.0378376 6.66118 0.0455297 6.03385 0.0494237C5.27256 -0.228443 5.01022 -0.293572 3.99437 -0.41531C3.64683 -0.460215 3.29333 -0.487015 2.97531 -0.492566C1.96689 -0.470601 0.70157 -0.562039 -0.254718 -0.549933C-0.831752 -0.555906 -1.3214 -0.525037 -1.67351 -0.460488C-1.97918 -0.40983 -2.32871 -0.369745 -2.71672 -0.34084C-3.77959 -0.578549 -3.87326 -0.732933 -3.07374 -0.793011C-2.85712 -0.806978 -2.55874 -0.802658 -2.40232 -0.832237C-2.31256 -0.850252 -2.18995 -0.860555 -2.04425 -0.862337C-1.89855 -0.864118 -1.7338 -0.857329 -1.5629 -0.8425C-1.02355 -0.803601 -0.518026 -0.794452 -0.097047 -0.815974C0.299143 -0.844457 0.784781 -0.843321 1.31305 -0.812669C1.70124 -0.76459 2.04244 -0.832478 2.37816 -0.852093C2.71387 -0.871706 2.98937 -0.90694 3.51371 -0.854236C3.60973 -0.843743 3.70505 -0.837442 3.79237 -0.835821C3.87969 -0.8342 3.95669 -0.837297 4.01745 -0.84488C4.58061 -0.878822 5.25264 -0.875257 5.97897 -0.834473C7.09295 -0.79434 8.13815 -0.792836 9.07829 -0.83001C9.64107 -0.862537 10.1209 -0.920218 10.499 -1.00081C10.6021 -1.02776 10.7551 -1.04392 10.9435 -1.04774C11.8894 -1.03093 12.9165 -0.967646 13.9586 -0.86198C14.3511 -0.81964 14.7432 -0.78615 15.1263 -0.762223C15.9139 -0.709067 16.6755 -0.679282 17.3888 -0.673747C18.4253 -0.672869 19.5044 -0.652418 20.6166 -0.612578C21.303 -0.590395 21.9644 -0.582207 22.5929 -0.588104C23.2389 -0.590884 23.9287 -0.573963 24.6465 -0.537734C25.3604 -0.508211 25.9895 -0.525221 26.458 -0.586705C26.6122 -0.619838 26.7365 -0.659182 26.8284 -0.704004C25.7832 -0.84985 24.7022 -0.923972 23.8031 -0.911444C23.4616 -0.921104 23.178 -0.911351 22.8181 -0.96816L22.8069 -0.949158C22.7352 -0.936827 22.6272 -0.933917 22.5033 -0.940986C22.3794 -0.948053 22.2484 -0.964601 22.1351 -0.987478C22.1779 -1.05969 22.2185 -1.1281 22.2477 -1.17751C22.9328 -1.16879 23.598 -1.1695 24.2399 -1.17963C24.7809 -1.19421 25.5154 -1.06652 25.9838 -1.11458C26.8973 -1.05448 27.4789 -1.13747 28.298 -1.11352C29.1172 -1.08957 30.0195 -1.01047 30.8386 -0.986519C31.5534 -0.973378 32.2475 -0.970522 32.917 -0.977963C33.148 -0.988408 33.4144 -0.985958 33.6998 -0.970762C34.1009 -0.942172 34.474 -0.937381 34.7763 -0.956941C35.0785 -0.976502 35.2978 -1.01963 35.4089 -1.08137C35.3042 -1.1392 35.1633 -1.21377 35.0007 -1.29102C35.2998 -1.35449 35.754 -1.38121 36.2959 -1.36722L37.0617 -1.37028C37.2646 -1.36861 37.4197 -1.38577 37.4949 -1.41821C37.5702 -1.45066 37.5598 -1.4959 37.4659 -1.54459C36.0139 -1.7897 35.9604 -1.81672 34.8947 -1.65906L33.4798 -1.73232L33.5036 -1.73345ZM52.6424 -1.06014L52.5346 -1.07349L52.6424 -1.06014ZM228.977 25.018L228.952 25.0599L228.979 25.0142L229.217 25.0436L229.232 25.017L228.977 25.018ZM194.534 6.69413C194.199 6.64853 193.86 6.60659 193.521 6.5686C193.432 6.56271 193.348 6.56137 193.278 6.56472C193.207 6.56806 193.152 6.57598 193.116 6.58779C193.089 6.6334 193.278 6.66505 193.451 6.68641C193.668 6.71517 193.891 6.73345 194.095 6.73936C194.299 6.74526 194.477 6.73859 194.611 6.72002L194.806 6.70338L194.534 6.69413ZM21.8286 17.8097C22.0494 17.8174 22.2587 17.8187 22.4515 17.8134C23.3067 17.7766 24.1255 17.723 25.0023 17.6888C26.1085 17.602 27.3798 17.5666 28.7682 17.5841C29.3106 17.5926 29.7689 17.5644 30.0895 17.5029C30.2815 17.4699 30.5292 17.4507 30.8176 17.4463L34.4882 17.3461C34.7151 17.3253 34.9113 17.2961 35.0721 17.2593C34.7486 17.2192 34.5329 17.1925 34.4035 17.1765C34.1351 17.172 33.9043 17.1842 33.7344 17.2119C33.5518 17.2589 33.2433 17.2775 32.8701 17.264C32.4933 17.2528 32.1259 17.2468 31.7697 17.246C31.0969 17.2483 30.4197 17.2583 29.7447 17.2644C29.4821 17.3951 28.707 17.3358 28.0433 17.3229L27.5305 17.3288C25.8545 17.3965 24.2535 17.4897 22.7353 17.6079C22.4419 17.6279 22.1891 17.6598 21.9847 17.7026C21.9077 17.736 21.8831 17.7776 21.9126 17.8242L21.8048 17.8109L21.8286 17.8097ZM96.6735 30.3023C97.0802 30.3112 97.5036 30.3295 97.9375 30.3569C98.2719 30.3848 98.5981 30.4018 98.9032 30.4071C100.613 30.4364 102.394 30.5041 104.223 30.6092C104.463 30.6251 104.693 30.6329 104.904 30.6323L106.402 30.6056C106.873 30.5906 106.882 30.5754 106.539 30.3738C106.254 30.3346 105.966 30.2989 105.676 30.2669C105.504 30.2455 105.224 30.2108 105.158 30.2435C104.758 30.3326 104.028 30.2749 103.414 30.256C101.638 30.2073 99.8051 30.1353 98.0112 30.0764C97.632 30.0619 97.2646 30.0546 96.913 30.0546C96.6947 30.0515 96.4957 30.0572 96.3243 30.0714C96.2741 30.0728 96.2322 30.0771 96.2012 30.0838C96.1702 30.0905 96.1508 30.0995 96.1444 30.1103C96.138 30.1211 96.1448 30.1334 96.1641 30.1463C96.1835 30.1593 96.215 30.1726 96.2567 30.1854C96.4035 30.2303 96.5731 30.2733 96.7598 30.313L96.6735 30.3023ZM109.689 1.03641L111.44 1.0125C111.649 1.00994 111.827 0.983029 112.052 0.994536C113.251 1.03101 114.36 1.02085 115.334 0.964492C115.666 0.941494 116.053 0.936895 116.476 0.950949C117.771 0.992596 118.993 0.99431 120.108 0.956041C120.828 0.94836 121.503 0.922564 122.121 0.879035C122.169 0.86893 122.198 0.855212 122.208 0.838815C122.218 0.822418 122.207 0.803728 122.177 0.784021C122.17 0.771571 122.148 0.758176 122.115 0.744763C122.082 0.731351 122.038 0.718232 121.986 0.706321C121.933 0.694409 121.874 0.683987 121.812 0.675763C121.75 0.66754 121.687 0.661712 121.627 0.658689C120.846 0.599768 120.104 0.579242 119.463 0.598776C118.868 0.622148 118.228 0.628988 117.553 0.619186C116.906 0.616608 116.467 0.692818 115.668 0.634667C115.33 0.615518 115.032 0.621822 114.824 0.652523C114.406 0.703411 113.822 0.706242 113.176 0.660511C112.79 0.637367 112.42 0.627442 112.082 0.631115C111.262 0.647845 110.478 0.681319 109.718 0.713663C109.479 0.721145 109.222 0.722178 108.953 0.716737L105.148 0.653402C104.233 0.633974 103.321 0.610746 102.423 0.60159C101.69 0.581709 101.007 0.587935 100.399 0.620049C99.7503 0.653803 99.0434 0.667505 98.291 0.6609C97.1226 0.679371 95.9609 0.686436 94.6892 0.683951C93.878 0.68548 93.0476 0.680539 92.2001 0.665324C91.7714 0.645741 91.4074 0.661688 91.1782 0.710096C91.0388 0.749948 90.7108 0.717481 90.4385 0.708233C88.9861 0.61909 87.6239 0.597968 86.4473 0.646338C86.297 0.65422 86.1321 0.657073 85.9561 0.654849C84.8227 0.653188 83.6485 0.642384 82.5606 0.642264C82.2742 0.646022 82.0046 0.656335 81.7553 0.67307C81.782 0.700372 81.8581 0.729965 81.9678 0.75571C82.0776 0.781454 82.2125 0.801377 82.3447 0.811341C83.3736 0.887619 84.3671 0.927914 85.2834 0.930536C86.8086 0.920818 88.4063 0.942665 90.0597 0.99584C91.3427 1.04945 92.5126 1.03816 93.4822 0.962819C94.2402 0.906599 95.2262 0.927752 96.271 1.02264C96.718 1.06796 97.1519 1.08608 97.5134 1.07453C97.8613 1.05938 98.2605 1.06305 98.6876 1.08534C99.5881 1.12772 100.454 1.14738 101.269 1.14393C102.065 1.12833 102.808 1.08571 103.626 1.07278C104.444 1.05985 105.689 1.06726 106.698 1.04529C107.706 1.02333 108.703 1.02037 109.689 1.03641ZM37.1612 -1.18662C37.2536 -1.06911 37.5806 -0.995966 37.9324 -0.964632C39.1454 -0.825496 40.3445 -0.76629 41.3285 -0.796948C41.8601 -0.839711 42.5687 -0.82325 43.3151 -0.750798C44.1843 -0.675483 44.9967 -0.662993 45.6091 -0.715529C45.7592 -0.724708 45.8741 -0.744114 45.9436 -0.772019C45.9571 -0.794821 45.9819 -0.836626 45.9864 -0.844227C45.922 -0.863505 45.8431 -0.881366 45.7557 -0.896434C45.6683 -0.911503 45.5748 -0.923374 45.4823 -0.931133L41.4647 -1.06565L40.7645 -1.09525C39.4858 -1.17281 38.2672 -1.2037 37.1612 -1.18662ZM45.0639 0.673329C45.6909 0.865218 45.6931 0.861409 46.0144 0.905275C47.5641 1.08748 49.1128 1.18584 50.4762 1.18864C50.7792 1.18809 51.0364 1.16956 51.2259 1.13463C51.3234 1.1299 51.3855 1.11485 51.3986 1.09278C51.4117 1.07071 51.3747 1.0434 51.2958 1.01681L50.7971 0.881629C49.8916 0.823104 48.9991 0.776601 48.1249 0.742403C47.1071 0.702018 46.2052 0.700459 45.1501 0.684008L45.0639 0.673329ZM96.5984 29.4526C97.1826 29.7167 97.1849 29.7129 98.1631 29.781C98.8448 29.8293 99.5059 29.8576 100.127 29.8652C100.886 29.8735 101.664 29.8883 102.421 29.9005C102.606 29.9089 102.763 29.9019 102.861 29.8809C102.959 29.8598 102.991 29.8263 102.952 29.7867C102.852 29.7437 102.697 29.7021 102.511 29.6687C102.325 29.6353 102.119 29.612 101.926 29.6026L101.513 29.5963C101.012 29.5831 100.491 29.5635 100.007 29.5606C99.6924 29.5716 99.3283 29.5631 98.9428 29.5359C98.5573 29.5087 98.1609 29.4634 97.7848 29.4037L96.5984 29.4526ZM48.1838 -0.841315C48.3398 -0.795578 48.5163 -0.751772 48.7085 -0.711064C49.4526 -0.598233 50.2402 -0.534148 50.9169 -0.531375C51.2368 -0.524385 51.5294 -0.549341 51.8552 -0.513076C52.4394 -0.464616 53.0056 -0.438802 53.5232 -0.437033C53.5232 -0.437033 53.6683 -0.447614 53.7159 -0.449873L53.8151 -0.617097C53.57 -0.655837 53.3145 -0.687485 53.0602 -0.710584C52.2069 -0.755075 51.3684 -0.785492 50.5322 -0.819709C49.696 -0.853928 49.4044 -0.869647 48.8575 -0.884343C48.6136 -0.876265 48.3879 -0.861851 48.1838 -0.841315ZM29.7053 19.948L30.822 20.2902C31.1833 20.32 31.5209 20.3254 31.7833 20.3056C32.0458 20.2858 32.2187 20.2419 32.2758 20.1806C32.3678 20.152 32.377 20.1095 32.3015 20.0621C32.226 20.0147 32.0716 19.9661 31.8709 19.9265C31.6776 19.8795 31.457 19.8374 31.2227 19.8028C30.9883 19.7682 30.7453 19.7417 30.5087 19.7252L29.7053 19.948ZM39.0026 18.2438C38.2723 18.1857 37.5737 18.162 36.9603 18.1744C36.5739 18.2084 36.0503 18.1975 35.4968 18.1441C34.4903 18.0376 33.52 18.0081 32.7908 18.0619C32.7908 18.0619 32.7637 18.1075 32.6401 18.1207C32.5165 18.134 33.0067 18.1661 33.1146 18.1795C33.9054 18.2122 34.7008 18.2372 35.3883 18.249C35.8152 18.2485 36.2667 18.2592 36.735 18.2811C37.3795 18.3149 37.9906 18.3258 38.5446 18.3135C38.5446 18.3135 38.759 18.3034 39.0004 18.2476L39.0026 18.2438ZM117.001 0.416305C116.653 0.351845 116.274 0.299454 115.895 0.263069C115.516 0.226683 115.145 0.207246 114.811 0.206212C114.555 0.202849 114.348 0.219868 114.223 0.254579C114.098 0.28929 114.061 0.339714 114.119 0.397874C114.378 0.429927 114.723 0.472662 114.917 0.496701C115.589 0.494348 116.163 0.46344 117.001 0.416305ZM182.303 5.84836C182.024 5.79647 181.715 5.7568 181.414 5.73387C181.112 5.71095 180.829 5.70569 180.598 5.71871C180.479 5.72436 180.56 5.78332 180.539 5.81753C180.526 5.82528 180.526 5.83493 180.54 5.84545C180.553 5.85598 180.58 5.867 180.616 5.87735C180.653 5.88771 180.698 5.89702 180.747 5.90432C180.796 5.91161 180.848 5.91662 180.896 5.91881C181.2 5.94116 181.486 5.94782 181.73 5.93818C181.974 5.92854 182.168 5.90291 182.294 5.86357L182.303 5.84836ZM186.679 6.59016C186.635 6.55954 186.543 6.52763 186.419 6.50027C186.295 6.47291 186.147 6.45194 186.003 6.44121C185.748 6.43977 185.516 6.44826 185.317 6.46637C185.1 6.48033 185.256 6.56898 185.549 6.62158C185.673 6.64269 185.806 6.65916 185.936 6.66967C186.067 6.68019 186.191 6.68446 186.301 6.68215C186.41 6.67984 186.501 6.671 186.565 6.65635C186.63 6.6417 186.668 6.62164 186.674 6.59776L186.679 6.59016ZM59.5422 -0.515626C58.8894 -0.625031 58.387 -0.597508 57.8343 -0.64148C57.2816 -0.685452 57.1455 -0.690079 57.2195 -0.619715C57.2936 -0.549352 57.6724 -0.563622 57.9097 -0.534241C58.2302 -0.495254 58.5526 -0.472867 58.8409 -0.46958C59.1293 -0.466291 59.3721 -0.482234 59.5422 -0.515626ZM195.568 17.996C195.222 17.9714 194.883 17.9541 194.557 17.9442C194.514 17.9544 194.487 17.9677 194.478 17.9834C194.468 17.999 194.477 18.0167 194.503 18.0354C194.503 18.0354 194.724 18.0914 194.854 18.1074C195.33 18.1624 195.354 18.0837 195.568 17.996ZM244.436 28.1892C244.67 28.2631 244.78 28.3133 244.967 28.3487C245.053 28.361 245.142 28.37 245.227 28.3749C245.312 28.3798 245.392 28.3806 245.459 28.3771C245.542 28.3558 245.561 28.3233 245.513 28.2859C245.513 28.2859 245.275 28.2196 245.184 28.2166C244.925 28.2009 244.674 28.1917 244.436 28.1892ZM48.431 -1.14115C47.935 -1.20258 47.4605 -1.26135 47.117 -1.18966C47.9047 -1.1125 47.9047 -1.1125 48.431 -1.14115ZM56.4648 -0.439867C55.9639 -0.571252 55.67 -0.583175 55.4296 -0.568079C55.3785 -0.564277 55.3447 -0.555802 55.3332 -0.543942C55.3218 -0.532082 55.3334 -0.517481 55.3663 -0.502345C55.3992 -0.48721 55.4515 -0.472367 55.5155 -0.460058C55.5794 -0.447749 55.6514 -0.438646 55.7206 -0.434127C55.9818 -0.430345 56.2309 -0.432266 56.4648 -0.439867ZM82.243 -0.384309C82.2543 -0.403312 82.2678 -0.426116 82.1384 -0.442141C82.1045 -0.450276 82.0648 -0.457273 82.0232 -0.462431C81.9815 -0.467589 81.9395 -0.470721 81.9012 -0.471519C81.9012 -0.471519 81.8877 -0.448715 81.8787 -0.433512L82.243 -0.384309ZM100.144 31.1646L99.8561 31.1819L99.9855 31.198L100.327 31.2076L100.144 31.1646ZM201.577 6.29364C201.47 6.28029 201.362 6.26693 201.346 6.29353C201.323 6.29766 201.309 6.3036 201.305 6.31087C201.3 6.31815 201.306 6.32653 201.321 6.33534C201.321 6.33534 201.472 6.35404 201.537 6.36205L201.577 6.29364ZM184.784 6.50642C184.713 6.50489 184.649 6.50667 184.596 6.51166L184.582 6.53446L184.798 6.56117L184.784 6.50642ZM38.4331 11.9397C38.3498 11.9259 38.2615 11.9149 38.1743 11.9077L38.0664 11.8943C38.0664 11.8943 38.1823 11.9331 38.247 11.9412C38.3117 11.9492 38.3639 11.9393 38.4331 11.9397Z" fill="#FEC223"/>
</g>
</g>
</svg>
